WIPSHDC-Missing-JP-Sans-ExtraLight.ufo
<glyph name="uni4E0D" format="2">
	<advance width="1000" height="1000"/>
	<unicode hex="4E0D"/>
	<unicode hex="F967"/>
	<note>
		cid09496
	</note>
	<outline>
		<contour>
			<point x="925" y="757" type="line"/>
			<point x="74" y="757" type="line"/>
			<point x="74" y="727" type="line"/>
			<point x="925" y="727" type="line"/>
		</contour>
		<contour>
			<point x="590" y="502" type="curve"/>
			<point x="571" y="484" type="line"/>
			<point x="698" y="408"/>
			<point x="850" y="296"/>
			<point x="925" y="221" type="curve"/>
			<point x="945" y="244" type="line"/>
			<point x="869" y="318"/>
			<point x="718" y="428"/>
		</contour>
		<contour>
			<point x="603" y="737" type="curve"/>
			<point x="574" y="749" type="line"/>
			<point x="463" y="537"/>
			<point x="263" y="335"/>
			<point x="55" y="225" type="curve"/>
			<point x="61" y="219"/>
			<point x="70" y="209"/>
			<point x="75" y="203" type="curve"/>
			<point x="285" y="316"/>
			<point x="489" y="522"/>
		</contour>
		<contour>
			<point x="513" y="611" type="line"/>
			<point x="483" y="582" type="line"/>
			<point x="483" y="-69" type="line"/>
			<point x="513" y="-69" type="line"/>
			<point x="513" y="611" type="line"/>
		</contour>
	</outline>
</glyph>
<glyph name="uni4E14" format="2">
	<advance width="1000" height="1000"/>
	<unicode hex="4E14"/>
	<note>
		cid09510
	</note>
	<outline>
		<contour>
			<point x="942" y="5" type="line"/>
			<point x="59" y="5" type="line"/>
			<point x="59" y="-24" type="line"/>
			<point x="942" y="-24" type="line"/>
		</contour>
		<contour>
			<point x="753" y="517" type="line"/>
			<point x="250" y="517" type="line"/>
			<point x="250" y="487" type="line"/>
			<point x="753" y="487" type="line"/>
		</contour>
		<contour>
			<point x="753" y="258" type="line"/>
			<point x="250" y="258" type="line"/>
			<point x="250" y="229" type="line"/>
			<point x="753" y="229" type="line"/>
		</contour>
		<contour>
			<point x="768" y="768" type="line"/>
			<point x="234" y="768" type="line"/>
			<point x="234" y="-10" type="line"/>
			<point x="263" y="-10" type="line"/>
			<point x="263" y="738" type="line"/>
			<point x="739" y="738" type="line"/>
			<point x="739" y="-10" type="line"/>
			<point x="768" y="-10" type="line"/>
		</contour>
	</outline>
</glyph>
<glyph name="uni4E15" format="2">
	<advance width="1000" height="1000"/>
	<unicode hex="4E15"/>
	<note>
		cid09511
	</note>
	<outline>
		<contour>
			<point x="920" y="751" type="line"/>
			<point x="80" y="751" type="line"/>
			<point x="80" y="721" type="line"/>
			<point x="920" y="721" type="line"/>
		</contour>
		<contour>
			<point x="942" y="8" type="line"/>
			<point x="59" y="8" type="line"/>
			<point x="59" y="-21" type="line"/>
			<point x="942" y="-21" type="line"/>
		</contour>
		<contour>
			<point x="590" y="721" type="curve"/>
			<point x="563" y="732" type="line"/>
			<point x="451" y="540"/>
			<point x="263" y="387"/>
			<point x="53" y="295" type="curve"/>
			<point x="61" y="289"/>
			<point x="72" y="278"/>
			<point x="77" y="271" type="curve"/>
			<point x="282" y="370"/>
			<point x="473" y="521"/>
		</contour>
		<contour>
			<point x="595" y="551" type="curve"/>
			<point x="574" y="532" type="line"/>
			<point x="697" y="458"/>
			<point x="847" y="349"/>
			<point x="922" y="280" type="curve"/>
			<point x="945" y="304" type="line"/>
			<point x="868" y="373"/>
			<point x="718" y="477"/>
		</contour>
		<contour>
			<point x="513" y="621" type="line"/>
			<point x="483" y="592" type="line"/>
			<point x="483" y="62" type="line"/>
			<point x="513" y="62" type="line"/>
			<point x="513" y="621" type="line"/>
		</contour>
	</outline>
</glyph>
<glyph name="uni4E3B" format="2">
	<advance width="1000" height="1000"/>
	<unicode hex="4E3B"/>
	<note>
		cid09562
	</note>
	<outline>
		<contour>
			<point x="892" y="610" type="line"/>
			<point x="111" y="610" type="line"/>
			<point x="111" y="580" type="line"/>
			<point x="892" y="580" type="line"/>
		</contour>
		<contour>
			<point x="857" y="314" type="line"/>
			<point x="150" y="314" type="line"/>
			<point x="150" y="284" type="line"/>
			<point x="857" y="284" type="line"/>
		</contour>
		<contour>
			<point x="944" y="-5" type="line"/>
			<point x="61" y="-5" type="line"/>
			<point x="61" y="-34" type="line"/>
			<point x="944" y="-34" type="line"/>
		</contour>
		<contour>
			<point x="514" y="594" type="line"/>
			<point x="484" y="594" type="line"/>
			<point x="484" y="-18" type="line"/>
			<point x="514" y="-18" type="line"/>
		</contour>
		<contour>
			<point x="369" y="830" type="curve"/>
			<point x="350" y="809" type="line"/>
			<point x="449" y="766"/>
			<point x="551" y="702"/>
			<point x="614" y="645" type="curve"/>
			<point x="633" y="668" type="line"/>
			<point x="569" y="724"/>
			<point x="468" y="786"/>
		</contour>
	</outline>
</glyph>
<glyph name="uni4E4D" format="2">
	<advance width="1000" height="1000"/>
	<unicode hex="4E4D"/>
	<note>
		cid09585
	</note>
	<outline>
		<contour>
			<point x="367" y="828" type="curve"/>
			<point x="338" y="836" type="line"/>
			<point x="272" y="672"/>
			<point x="167" y="516"/>
			<point x="49" y="415" type="curve"/>
			<point x="57" y="410"/>
			<point x="71" y="400"/>
			<point x="76" y="395" type="curve"/>
			<point x="190" y="501"/>
			<point x="296" y="657"/>
		</contour>
		<contour>
			<point x="941" y="651" type="line"/>
			<point x="271" y="651" type="line"/>
			<point x="256" y="621" type="line"/>
			<point x="941" y="621" type="line"/>
		</contour>
		<contour>
			<point x="495" y="640" type="line"/>
			<point x="466" y="640" type="line"/>
			<point x="466" y="-70" type="line"/>
			<point x="495" y="-70" type="line"/>
		</contour>
		<contour>
			<point x="881" y="441" type="line"/>
			<point x="481" y="441" type="line"/>
			<point x="481" y="412" type="line"/>
			<point x="881" y="412" type="line"/>
		</contour>
		<contour>
			<point x="891" y="229" type="line"/>
			<point x="481" y="229" type="line"/>
			<point x="481" y="199" type="line"/>
			<point x="891" y="199" type="line"/>
		</contour>
	</outline>
</glyph>
<glyph name="uni4E4E" format="2">
	<advance width="1000" height="1000"/>
	<unicode hex="4E4E"/>
	<note>
		cid09586
	</note>
	<outline>
		<contour>
			<point x="838" y="781" type="curve"/>
			<point x="819" y="807" type="line"/>
			<point x="673" y="765"/>
			<point x="365" y="741"/>
			<point x="133" y="732" type="curve"/>
			<point x="135" y="724"/>
			<point x="139" y="714"/>
			<point x="139" y="706" type="curve"/>
			<point x="376" y="713"/>
			<point x="681" y="737"/>
		</contour>
		<contour>
			<point x="940" y="337" type="line"/>
			<point x="62" y="337" type="line"/>
			<point x="62" y="308" type="line"/>
			<point x="940" y="308" type="line"/>
		</contour>
		<contour>
			<point x="522" y="-14" type="curve" smooth="yes"/>
			<point x="522" y="739" type="line"/>
			<point x="492" y="739" type="line"/>
			<point x="492" y="-15" type="line" smooth="yes"/>
			<point x="492" y="-37"/>
			<point x="484" y="-43"/>
			<point x="462" y="-45" type="curve" smooth="yes"/>
			<point x="440" y="-46"/>
			<point x="365" y="-47"/>
			<point x="272" y="-44" type="curve"/>
			<point x="278" y="-54"/>
			<point x="282" y="-66"/>
			<point x="285" y="-74" type="curve"/>
			<point x="395" y="-74"/>
			<point x="453" y="-75"/>
			<point x="480" y="-69" type="curve" smooth="yes"/>
			<point x="508" y="-64"/>
			<point x="522" y="-51"/>
		</contour>
		<contour>
			<point x="215" y="643" type="curve"/>
			<point x="187" y="635" type="line"/>
			<point x="231" y="559"/>
			<point x="277" y="459"/>
			<point x="293" y="398" type="curve"/>
			<point x="322" y="408" type="line"/>
			<point x="305" y="468"/>
			<point x="259" y="568"/>
		</contour>
		<contour>
			<point x="834" y="644" type="curve"/>
			<point x="805" y="657" type="line"/>
			<point x="775" y="583"/>
			<point x="721" y="474"/>
			<point x="679" y="410" type="curve"/>
			<point x="703" y="397" type="line"/>
			<point x="745" y="461"/>
			<point x="797" y="564"/>
		</contour>
	</outline>
</glyph>
<glyph name="uni4EE3" format="2">
	<advance width="1000" height="1000"/>
	<unicode hex="4EE3"/>
	<note>
		cid09807
	</note>
	<outline>
		<contour>
			<point x="946" y="552" type="line"/>
			<point x="298" y="476" type="line"/>
			<point x="302" y="449" type="line"/>
			<point x="950" y="525" type="line"/>
		</contour>
		<contour>
			<point x="701" y="807" type="curve"/>
			<point x="683" y="790" type="line"/>
			<point x="756" y="744"/>
			<point x="831" y="686"/>
			<point x="878" y="638" type="curve"/>
			<point x="898" y="656" type="line"/>
			<point x="850" y="704"/>
			<point x="774" y="762"/>
		</contour>
		<contour>
			<point x="369" y="810" type="curve"/>
			<point x="341" y="818" type="line"/>
			<point x="271" y="652"/>
			<point x="155" y="494"/>
			<point x="32" y="392" type="curve"/>
			<point x="38" y="387"/>
			<point x="49" y="375"/>
			<point x="53" y="369" type="curve"/>
			<point x="177" y="477"/>
			<point x="293" y="636"/>
		</contour>
		<contour>
			<point x="247" y="601" type="line"/>
			<point x="218" y="572" type="line"/>
			<point x="218" y="-69" type="line"/>
			<point x="247" y="-69" type="line"/>
			<point x="247" y="600" type="line"/>
		</contour>
		<contour>
			<point x="578" y="817" type="curve"/>
			<point x="549" y="817" type="line"/>
			<point x="573" y="339"/>
			<point x="677" y="-62"/>
			<point x="880" y="-71" type="curve" smooth="yes"/>
			<point x="929" y="-73"/>
			<point x="956" y="-16"/>
			<point x="973" y="137" type="curve"/>
			<point x="966" y="139"/>
			<point x="954" y="144"/>
			<point x="947" y="149" type="curve"/>
			<point x="934" y="26"/>
			<point x="914" y="-42"/>
			<point x="880" y="-40" type="curve" smooth="yes"/>
			<point x="710" y="-29"/>
			<point x="600" y="346"/>
		</contour>
	</outline>
</glyph>
<glyph name="uni4F5C" format="2">
	<advance width="1000" height="1000"/>
	<unicode hex="4F5C"/>
	<note>
		cid09980
	</note>
	<outline>
		<contour>
			<point x="951" y="659" type="line"/>
			<point x="482" y="659" type="line"/>
			<point x="468" y="629" type="line"/>
			<point x="951" y="629" type="line"/>
		</contour>
		<contour>
			<point x="931" y="445" type="line"/>
			<point x="600" y="445" type="line"/>
			<point x="600" y="416" type="line"/>
			<point x="931" y="416" type="line"/>
		</contour>
		<contour>
			<point x="945" y="225" type="line"/>
			<point x="600" y="225" type="line"/>
			<point x="600" y="195" type="line"/>
			<point x="945" y="195" type="line"/>
		</contour>
		<contour>
			<point x="616" y="650" type="line"/>
			<point x="586" y="650" type="line"/>
			<point x="586" y="-69" type="line"/>
			<point x="616" y="-69" type="line"/>
		</contour>
		<contour>
			<point x="565" y="809" type="curve"/>
			<point x="536" y="816" type="line"/>
			<point x="483" y="667"/>
			<point x="400" y="520"/>
			<point x="307" y="423" type="curve"/>
			<point x="315" y="418"/>
			<point x="328" y="408"/>
			<point x="332" y="404" type="curve"/>
			<point x="424" y="505"/>
			<point x="508" y="653"/>
		</contour>
		<contour>
			<point x="347" y="819" type="curve"/>
			<point x="319" y="827" type="line"/>
			<point x="257" y="666"/>
			<point x="157" y="508"/>
			<point x="50" y="405" type="curve"/>
			<point x="57" y="400"/>
			<point x="68" y="387"/>
			<point x="72" y="381" type="curve"/>
			<point x="180" y="491"/>
			<point x="280" y="650"/>
		</contour>
		<contour>
			<point x="235" y="617" type="line"/>
			<point x="207" y="588" type="line"/>
			<point x="207" y="-68" type="line"/>
			<point x="237" y="-68" type="line"/>
			<point x="237" y="615" type="line"/>
		</contour>
	</outline>
</glyph>
<glyph name="uni4F60" format="2">
	<advance width="1000" height="1000"/>
	<unicode hex="4F60"/>
	<note>
		cid09987
	</note>
	<outline>
		<contour>
			<point x="510" y="819" type="curve"/>
			<point x="480" y="825" type="line"/>
			<point x="447" y="670"/>
			<point x="393" y="520"/>
			<point x="320" y="420" type="curve"/>
			<point x="328" y="416"/>
			<point x="340" y="406"/>
			<point x="345" y="402" type="curve"/>
			<point x="418" y="506"/>
			<point x="474" y="658"/>
		</contour>
		<contour>
			<point x="504" y="416" type="curve"/>
			<point x="474" y="422" type="line"/>
			<point x="441" y="293"/>
			<point x="388" y="169"/>
			<point x="320" y="85" type="curve"/>
			<point x="328" y="81"/>
			<point x="341" y="72"/>
			<point x="347" y="68" type="curve"/>
			<point x="413" y="154"/>
			<point x="469" y="280"/>
		</contour>
		<contour>
			<point x="929" y="624" type="line"/>
			<point x="439" y="624" type="line"/>
			<point x="427" y="595" type="line"/>
			<point x="929" y="595" type="line"/>
		</contour>
		<contour>
			<point x="665" y="-22" type="curve" smooth="yes"/>
			<point x="665" y="616" type="line"/>
			<point x="635" y="616" type="line"/>
			<point x="635" y="-23" type="line" smooth="yes"/>
			<point x="635" y="-36"/>
			<point x="631" y="-40"/>
			<point x="619" y="-40" type="curve" smooth="yes"/>
			<point x="605" y="-41"/>
			<point x="561" y="-42"/>
			<point x="508" y="-40" type="curve"/>
			<point x="513" y="-50"/>
			<point x="518" y="-63"/>
			<point x="521" y="-71" type="curve"/>
			<point x="581" y="-71"/>
			<point x="619" y="-71"/>
			<point x="638" y="-65" type="curve" smooth="yes"/>
			<point x="657" y="-60"/>
			<point x="665" y="-49"/>
		</contour>
		<contour>
			<point x="801" y="426" type="curve"/>
			<point x="774" y="418" type="line"/>
			<point x="843" y="298"/>
			<point x="901" y="166"/>
			<point x="923" y="77" type="curve"/>
			<point x="952" y="87" type="line"/>
			<point x="931" y="176"/>
			<point x="873" y="307"/>
		</contour>
		<contour>
			<point x="922" y="624" type="line"/>
			<point x="917" y="624" type="line"/>
			<point x="917" y="618" type="line"/>
			<point x="905" y="556"/>
			<point x="889" y="478"/>
			<point x="877" y="431" type="curve"/>
			<point x="903" y="425" type="line"/>
			<point x="916" y="473"/>
			<point x="933" y="553"/>
			<point x="948" y="619" type="curve"/>
			<point x="929" y="626" type="line"/>
		</contour>
		<contour>
			<point x="320" y="819" type="curve"/>
			<point x="291" y="827" type="line"/>
			<point x="230" y="666"/>
			<point x="130" y="508"/>
			<point x="23" y="405" type="curve"/>
			<point x="30" y="400"/>
			<point x="40" y="387"/>
			<point x="44" y="381" type="curve"/>
			<point x="152" y="491"/>
			<point x="253" y="650"/>
		</contour>
		<contour>
			<point x="207" y="616" type="line"/>
			<point x="180" y="588" type="line"/>
			<point x="180" y="-68" type="line"/>
			<point x="209" y="-68" type="line"/>
			<point x="209" y="615" type="line"/>
		</contour>
	</outline>
</glyph>
<glyph name="uni51E6" format="2">
	<advance width="1000" height="1000"/>
	<unicode hex="51E6"/>
	<note>
		cid11098
	</note>
	<outline>
		<contour>
			<point x="236" y="827" type="curve"/>
			<point x="207" y="831" type="line"/>
			<point x="182" y="621"/>
			<point x="122" y="416"/>
			<point x="50" y="299" type="curve"/>
			<point x="58" y="295"/>
			<point x="71" y="285"/>
			<point x="76" y="280" type="curve"/>
			<point x="147" y="401"/>
			<point x="209" y="612"/>
		</contour>
		<contour>
			<point x="410" y="652" type="line"/>
			<point x="197" y="652" type="line"/>
			<point x="188" y="622" type="line"/>
			<point x="410" y="622" type="line"/>
		</contour>
		<contour>
			<point x="409" y="652" type="line"/>
			<point x="403" y="652" type="line"/>
			<point x="403" y="643" type="line"/>
			<point x="369" y="271"/>
			<point x="260" y="61"/>
			<point x="44" y="-47" type="curve"/>
			<point x="52" y="-53"/>
			<point x="61" y="-63"/>
			<point x="66" y="-69" type="curve"/>
			<point x="286" y="44"/>
			<point x="398" y="262"/>
			<point x="433" y="648" type="curve"/>
			<point x="415" y="654" type="line"/>
		</contour>
		<contour>
			<point x="173" y="533" type="curve"/>
			<point x="149" y="524" type="line"/>
			<point x="239" y="27"/>
			<point x="492" y="-48"/>
			<point x="773" y="-48" type="curve" smooth="yes"/>
			<point x="907" y="-48" type="line"/>
			<point x="937" y="-48" type="line"/>
			<point x="938" y="-40"/>
			<point x="945" y="-26"/>
			<point x="951" y="-18" type="curve"/>
			<point x="921" y="-18"/>
			<point x="798" y="-18"/>
			<point x="775" y="-18" type="curve" smooth="yes"/>
			<point x="509" y="-18"/>
			<point x="260" y="50"/>
		</contour>
		<contour>
			<point x="565" y="552" type="curve" smooth="yes"/>
			<point x="565" y="758" type="line"/>
			<point x="535" y="758" type="line"/>
			<point x="535" y="552" type="line" smooth="yes"/>
			<point x="535" y="425"/>
			<point x="523" y="254"/>
			<point x="425" y="124" type="curve"/>
			<point x="433" y="120"/>
			<point x="443" y="111"/>
			<point x="448" y="105" type="curve"/>
			<point x="549" y="239"/>
			<point x="565" y="420"/>
		</contour>
		<contour>
			<point x="799" y="758" type="line"/>
			<point x="547" y="758" type="line"/>
			<point x="547" y="728" type="line"/>
			<point x="799" y="728" type="line"/>
		</contour>
		<contour>
			<point x="815" y="198" type="curve" smooth="yes"/>
			<point x="815" y="758" type="line"/>
			<point x="786" y="758" type="line"/>
			<point x="786" y="201" type="line" smooth="yes"/>
			<point x="786" y="137"/>
			<point x="795" y="123"/>
			<point x="836" y="123" type="curve" smooth="yes"/>
			<point x="843" y="123"/>
			<point x="871" y="123"/>
			<point x="878" y="123" type="curve" smooth="yes"/>
			<point x="925" y="123"/>
			<point x="933" y="145"/>
			<point x="935" y="327" type="curve"/>
			<point x="927" y="329"/>
			<point x="916" y="334"/>
			<point x="909" y="340" type="curve"/>
			<point x="907" y="165"/>
			<point x="901" y="151"/>
			<point x="876" y="151" type="curve" smooth="yes"/>
			<point x="865" y="151"/>
			<point x="846" y="151"/>
			<point x="838" y="151" type="curve" smooth="yes"/>
			<point x="817" y="151"/>
			<point x="815" y="159"/>
		</contour>
	</outline>
</glyph>
<glyph name="uni5208" format="2">
	<advance width="1000" height="1000"/>
	<unicode hex="5208"/>
	<note>
		cid11147
	</note>
	<outline>
		<contour>
			<point x="640" y="710" type="line"/>
			<point x="611" y="710" type="line"/>
			<point x="611" y="168" type="line"/>
			<point x="640" y="168" type="line"/>
		</contour>
		<contour>
			<point x="897" y="-9" type="curve" smooth="yes"/>
			<point x="897" y="826" type="line"/>
			<point x="868" y="826" type="line"/>
			<point x="868" y="-11" type="line" smooth="yes"/>
			<point x="868" y="-29"/>
			<point x="863" y="-34"/>
			<point x="844" y="-35" type="curve" smooth="yes"/>
			<point x="825" y="-36"/>
			<point x="758" y="-37"/>
			<point x="684" y="-35" type="curve"/>
			<point x="690" y="-46"/>
			<point x="695" y="-61"/>
			<point x="698" y="-70" type="curve"/>
			<point x="776" y="-70"/>
			<point x="833" y="-70"/>
			<point x="860" y="-65" type="curve" smooth="yes"/>
			<point x="885" y="-59"/>
			<point x="897" y="-46"/>
		</contour>
		<contour>
			<point x="468" y="798" type="curve"/>
			<point x="439" y="802" type="line"/>
			<point x="385" y="443"/>
			<point x="250" y="142"/>
			<point x="62" y="-35" type="curve"/>
			<point x="70" y="-41"/>
			<point x="81" y="-51"/>
			<point x="86" y="-57" type="curve"/>
			<point x="277" y="126"/>
			<point x="414" y="433"/>
		</contour>
		<contour>
			<point x="102" y="663" type="curve"/>
			<point x="80" y="646" type="line"/>
			<point x="264" y="479"/>
			<point x="434" y="267"/>
			<point x="521" y="96" type="curve"/>
			<point x="545" y="115" type="line"/>
			<point x="459" y="282"/>
			<point x="289" y="493"/>
		</contour>
	</outline>
</glyph>
<glyph name="uni522B" format="2">
	<advance width="1000" height="1000"/>
	<unicode hex="522B"/>
	<note>
		cid11191
	</note>
	<outline>
		<contour>
			<point x="642" y="712" type="line"/>
			<point x="613" y="712" type="line"/>
			<point x="613" y="169" type="line"/>
			<point x="642" y="169" type="line"/>
		</contour>
		<contour>
			<point x="898" y="-16" type="curve" smooth="yes"/>
			<point x="898" y="813" type="line"/>
			<point x="868" y="813" type="line"/>
			<point x="868" y="-17" type="line" smooth="yes"/>
			<point x="868" y="-36"/>
			<point x="861" y="-42"/>
			<point x="842" y="-43" type="curve" smooth="yes"/>
			<point x="824" y="-44"/>
			<point x="764" y="-45"/>
			<point x="687" y="-43" type="curve"/>
			<point x="693" y="-52"/>
			<point x="698" y="-65"/>
			<point x="701" y="-71" type="curve"/>
			<point x="793" y="-72"/>
			<point x="839" y="-72"/>
			<point x="863" y="-66" type="curve" smooth="yes"/>
			<point x="885" y="-61"/>
			<point x="898" y="-49"/>
		</contour>
		<contour>
			<point x="135" y="508" type="line"/>
			<point x="135" y="756" type="line"/>
			<point x="457" y="756" type="line"/>
			<point x="457" y="508" type="line"/>
		</contour>
		<contour>
			<point x="486" y="785" type="line"/>
			<point x="106" y="785" type="line"/>
			<point x="106" y="478" type="line"/>
			<point x="486" y="478" type="line"/>
		</contour>
		<contour>
			<point x="475" y="337" type="line"/>
			<point x="59" y="337" type="line"/>
			<point x="59" y="308" type="line"/>
			<point x="475" y="308" type="line"/>
		</contour>
		<contour>
			<point x="496" y="337" type="curve"/>
			<point x="465" y="337" type="line"/>
			<point x="465" y="330" type="line"/>
			<point x="453" y="80"/>
			<point x="440" y="-9"/>
			<point x="421" y="-30" type="curve" smooth="yes"/>
			<point x="413" y="-39"/>
			<point x="404" y="-40"/>
			<point x="387" y="-40" type="curve" smooth="yes"/>
			<point x="372" y="-40"/>
			<point x="325" y="-40"/>
			<point x="275" y="-35" type="curve"/>
			<point x="280" y="-44"/>
			<point x="283" y="-56"/>
			<point x="284" y="-66" type="curve"/>
			<point x="328" y="-69"/>
			<point x="373" y="-70"/>
			<point x="394" y="-69" type="curve" smooth="yes"/>
			<point x="419" y="-69"/>
			<point x="433" y="-64"/>
			<point x="446" y="-49" type="curve" smooth="yes"/>
			<point x="471" y="-21"/>
			<point x="482" y="62"/>
			<point x="495" y="317" type="curve" smooth="yes"/>
			<point x="495" y="324"/>
			<point x="496" y="337"/>
		</contour>
		<contour>
			<point x="295" y="478" type="curve"/>
			<point x="265" y="478" type="line"/>
			<point x="252" y="237"/>
			<point x="222" y="48"/>
			<point x="45" y="-52" type="curve"/>
			<point x="53" y="-56"/>
			<point x="64" y="-66"/>
			<point x="69" y="-73" type="curve"/>
			<point x="248" y="34"/>
			<point x="282" y="225"/>
		</contour>
	</outline>
</glyph>
<glyph name="uni5236" format="2">
	<advance width="1000" height="1000"/>
	<unicode hex="5236"/>
	<note>
		cid11206
	</note>
	<outline>
		<contour>
			<point x="691" y="712" type="line"/>
			<point x="661" y="712" type="line"/>
			<point x="661" y="169" type="line"/>
			<point x="691" y="169" type="line"/>
		</contour>
		<contour>
			<point x="901" y="-16" type="curve" smooth="yes"/>
			<point x="901" y="813" type="line"/>
			<point x="871" y="813" type="line"/>
			<point x="871" y="-17" type="line" smooth="yes"/>
			<point x="871" y="-36"/>
			<point x="865" y="-42"/>
			<point x="848" y="-43" type="curve" smooth="yes"/>
			<point x="831" y="-44"/>
			<point x="776" y="-44"/>
			<point x="704" y="-42" type="curve"/>
			<point x="710" y="-50"/>
			<point x="716" y="-63"/>
			<point x="717" y="-71" type="curve"/>
			<point x="803" y="-72"/>
			<point x="845" y="-73"/>
			<point x="868" y="-67" type="curve" smooth="yes"/>
			<point x="890" y="-61"/>
			<point x="901" y="-49"/>
		</contour>
		<contour>
			<point x="343" y="829" type="line"/>
			<point x="314" y="829" type="line"/>
			<point x="314" y="-70" type="line"/>
			<point x="343" y="-70" type="line"/>
		</contour>
		<contour>
			<point x="553" y="49" type="curve" smooth="yes"/>
			<point x="553" y="342" type="line"/>
			<point x="523" y="342" type="line"/>
			<point x="523" y="49" type="line" smooth="yes"/>
			<point x="523" y="38"/>
			<point x="520" y="34"/>
			<point x="508" y="34" type="curve"/>
			<point x="494" y="32"/>
			<point x="455" y="32"/>
			<point x="397" y="34" type="curve"/>
			<point x="403" y="25"/>
			<point x="408" y="14"/>
			<point x="410" y="5" type="curve"/>
			<point x="471" y="5"/>
			<point x="510" y="5"/>
			<point x="528" y="11" type="curve" smooth="yes"/>
			<point x="548" y="17"/>
			<point x="553" y="27"/>
		</contour>
		<contour>
			<point x="546" y="342" type="line"/>
			<point x="111" y="342" type="line"/>
			<point x="111" y="6" type="line"/>
			<point x="140" y="6" type="line"/>
			<point x="140" y="313" type="line"/>
			<point x="546" y="313" type="line"/>
		</contour>
		<contour>
			<point x="605" y="494" type="line"/>
			<point x="49" y="494" type="line"/>
			<point x="49" y="464" type="line"/>
			<point x="605" y="464" type="line"/>
		</contour>
		<contour>
			<point x="560" y="670" type="line"/>
			<point x="141" y="670" type="line"/>
			<point x="135" y="641" type="line"/>
			<point x="560" y="641" type="line"/>
		</contour>
		<contour>
			<point x="188" y="794" type="curve"/>
			<point x="159" y="800" type="line"/>
			<point x="141" y="695"/>
			<point x="109" y="588"/>
			<point x="76" y="522" type="curve"/>
			<point x="84" y="520"/>
			<point x="97" y="515"/>
			<point x="105" y="510" type="curve"/>
			<point x="138" y="579"/>
			<point x="170" y="688"/>
		</contour>
	</outline>
</glyph>
<glyph name="uni524D" format="2">
	<advance width="1000" height="1000"/>
	<unicode hex="524D"/>
	<note>
		cid11237
	</note>
	<outline>
		<contour>
			<point x="440" y="354" type="line"/>
			<point x="146" y="354" type="line"/>
			<point x="146" y="324" type="line"/>
			<point x="440" y="324" type="line"/>
		</contour>
		<contour>
			<point x="440" y="187" type="line"/>
			<point x="146" y="187" type="line"/>
			<point x="146" y="158" type="line"/>
			<point x="440" y="158" type="line"/>
		</contour>
		<contour>
			<point x="939" y="657" type="line"/>
			<point x="61" y="657" type="line"/>
			<point x="61" y="627" type="line"/>
			<point x="939" y="627" type="line"/>
		</contour>
		<contour>
			<point x="620" y="509" type="line"/>
			<point x="590" y="509" type="line"/>
			<point x="590" y="98" type="line"/>
			<point x="620" y="98" type="line"/>
		</contour>
		<contour>
			<point x="454" y="-21" type="curve" smooth="yes"/>
			<point x="454" y="518" type="line"/>
			<point x="425" y="518" type="line"/>
			<point x="425" y="-21" type="line" smooth="yes"/>
			<point x="425" y="-36"/>
			<point x="421" y="-40"/>
			<point x="405" y="-41" type="curve" smooth="yes"/>
			<point x="390" y="-42"/>
			<point x="340" y="-42"/>
			<point x="277" y="-40" type="curve"/>
			<point x="281" y="-50"/>
			<point x="287" y="-63"/>
			<point x="289" y="-70" type="curve"/>
			<point x="361" y="-70"/>
			<point x="405" y="-70"/>
			<point x="427" y="-65" type="curve" smooth="yes"/>
			<point x="447" y="-59"/>
			<point x="454" y="-47"/>
		</contour>
		<contour>
			<point x="860" y="-20" type="curve" smooth="yes"/>
			<point x="860" y="542" type="line"/>
			<point x="830" y="542" type="line"/>
			<point x="830" y="-21" type="line" smooth="yes"/>
			<point x="830" y="-37"/>
			<point x="825" y="-41"/>
			<point x="809" y="-42" type="curve" smooth="yes"/>
			<point x="792" y="-43"/>
			<point x="736" y="-43"/>
			<point x="665" y="-42" type="curve"/>
			<point x="670" y="-51"/>
			<point x="675" y="-64"/>
			<point x="677" y="-72" type="curve"/>
			<point x="758" y="-72"/>
			<point x="805" y="-72"/>
			<point x="828" y="-66" type="curve" smooth="yes"/>
			<point x="851" y="-61"/>
			<point x="860" y="-50"/>
		</contour>
		<contour>
			<point x="441" y="518" type="line"/>
			<point x="132" y="518" type="line"/>
			<point x="132" y="-72" type="line"/>
			<point x="161" y="-72" type="line"/>
			<point x="161" y="488" type="line"/>
			<point x="441" y="488" type="line"/>
		</contour>
		<contour>
			<point x="250" y="827" type="curve"/>
			<point x="226" y="817" type="line"/>
			<point x="267" y="769"/>
			<point x="311" y="705"/>
			<point x="330" y="664" type="curve"/>
			<point x="357" y="676" type="line"/>
			<point x="336" y="717"/>
			<point x="291" y="781"/>
		</contour>
		<contour>
			<point x="778" y="818" type="curve"/>
			<point x="749" y="831" type="line"/>
			<point x="724" y="785"/>
			<point x="677" y="717"/>
			<point x="642" y="675" type="curve"/>
			<point x="668" y="663" type="line"/>
			<point x="703" y="704"/>
			<point x="745" y="766"/>
		</contour>
	</outline>
</glyph>
<glyph name="uni5357" format="2">
	<advance width="1000" height="1000"/>
	<unicode hex="5357"/>
	<note>
		cid11679
	</note>
	<outline>
		<contour>
			<point x="937" y="708" type="line"/>
			<point x="64" y="708" type="line"/>
			<point x="64" y="679" type="line"/>
			<point x="937" y="679" type="line"/>
		</contour>
		<contour>
			<point x="756" y="340" type="line"/>
			<point x="257" y="340" type="line"/>
			<point x="257" y="311" type="line"/>
			<point x="756" y="311" type="line"/>
		</contour>
		<contour>
			<point x="770" y="174" type="line"/>
			<point x="236" y="174" type="line"/>
			<point x="236" y="144" type="line"/>
			<point x="770" y="144" type="line"/>
		</contour>
		<contour>
			<point x="512" y="327" type="line"/>
			<point x="482" y="327" type="line"/>
			<point x="482" y="-61" type="line"/>
			<point x="512" y="-61" type="line"/>
		</contour>
		<contour>
			<point x="857" y="547" type="line"/>
			<point x="135" y="547" type="line"/>
			<point x="135" y="-70" type="line"/>
			<point x="165" y="-70" type="line"/>
			<point x="165" y="518" type="line"/>
			<point x="857" y="518" type="line"/>
		</contour>
		<contour>
			<point x="869" y="-17" type="curve" smooth="yes"/>
			<point x="869" y="547" type="line"/>
			<point x="840" y="547" type="line"/>
			<point x="840" y="-18" type="line" smooth="yes"/>
			<point x="840" y="-35"/>
			<point x="836" y="-40"/>
			<point x="818" y="-41" type="curve" smooth="yes"/>
			<point x="799" y="-42"/>
			<point x="738" y="-43"/>
			<point x="661" y="-40" type="curve"/>
			<point x="667" y="-51"/>
			<point x="672" y="-64"/>
			<point x="674" y="-73" type="curve"/>
			<point x="757" y="-73"/>
			<point x="812" y="-73"/>
			<point x="837" y="-67" type="curve" smooth="yes"/>
			<point x="862" y="-62"/>
			<point x="869" y="-48"/>
		</contour>
		<contour>
			<point x="343" y="488" type="curve"/>
			<point x="320" y="478" type="line"/>
			<point x="349" y="439"/>
			<point x="378" y="385"/>
			<point x="388" y="349" type="curve"/>
			<point x="414" y="360" type="line"/>
			<point x="403" y="396"/>
			<point x="374" y="449"/>
		</contour>
		<contour>
			<point x="676" y="482" type="curve"/>
			<point x="649" y="493" type="line"/>
			<point x="630" y="450"/>
			<point x="603" y="398"/>
			<point x="578" y="360" type="curve"/>
			<point x="600" y="350" type="line"/>
			<point x="626" y="386"/>
			<point x="656" y="437"/>
		</contour>
		<contour>
			<point x="512" y="830" type="line"/>
			<point x="482" y="830" type="line"/>
			<point x="482" y="531" type="line"/>
			<point x="512" y="531" type="line"/>
		</contour>
	</outline>
</glyph>
<glyph name="uni5427" format="2">
	<advance width="1000" height="1000"/>
	<unicode hex="5427"/>
	<note>
		cid11991
	</note>
	<outline>
		<contour>
			<point x="334" y="719" type="line"/>
			<point x="99" y="719" type="line"/>
			<point x="99" y="690" type="line"/>
			<point x="305" y="690" type="line"/>
			<point x="305" y="245" type="line"/>
			<point x="99" y="245" type="line"/>
			<point x="99" y="216" type="line"/>
			<point x="334" y="216" type="line"/>
		</contour>
		<contour>
			<point x="112" y="719" type="line"/>
			<point x="83" y="719" type="line"/>
			<point x="83" y="114" type="line"/>
			<point x="112" y="114" type="line"/>
		</contour>
		<contour>
			<point x="885" y="400" type="line"/>
			<point x="445" y="400" type="line"/>
			<point x="445" y="371" type="line"/>
			<point x="885" y="371" type="line"/>
		</contour>
		<contour>
			<point x="899" y="773" type="line"/>
			<point x="441" y="773" type="line"/>
			<point x="441" y="743" type="line"/>
			<point x="869" y="743" type="line"/>
			<point x="869" y="319" type="line"/>
			<point x="899" y="319" type="line"/>
		</contour>
		<contour>
			<point x="457" y="50" type="curve" smooth="yes"/>
			<point x="457" y="773" type="line"/>
			<point x="428" y="773" type="line"/>
			<point x="428" y="51" type="line" smooth="yes"/>
			<point x="428" y="-28"/>
			<point x="456" y="-47"/>
			<point x="545" y="-47" type="curve" smooth="yes"/>
			<point x="566" y="-47"/>
			<point x="813" y="-47"/>
			<point x="836" y="-47" type="curve" smooth="yes"/>
			<point x="928" y="-47"/>
			<point x="940" y="-2"/>
			<point x="949" y="153" type="curve"/>
			<point x="939" y="156"/>
			<point x="927" y="161"/>
			<point x="918" y="168" type="curve"/>
			<point x="911" y="18"/>
			<point x="902" y="-18"/>
			<point x="840" y="-18" type="curve" smooth="yes"/>
			<point x="793" y="-18"/>
			<point x="575" y="-18"/>
			<point x="541" y="-18" type="curve" smooth="yes"/>
			<point x="472" y="-18"/>
			<point x="457" y="-2"/>
		</contour>
		<contour>
			<point x="673" y="762" type="line"/>
			<point x="644" y="762" type="line"/>
			<point x="644" y="384" type="line"/>
			<point x="673" y="384" type="line"/>
		</contour>
	</outline>
</glyph>
<glyph name="uni5514" format="2">
	<advance width="1000" height="1000"/>
	<unicode hex="5514"/>
	<note>
		cid12343
	</note>
	<outline>
		<contour>
			<point x="330" y="720" type="line"/>
			<point x="100" y="720" type="line"/>
			<point x="100" y="691" type="line"/>
			<point x="301" y="691" type="line"/>
			<point x="301" y="246" type="line"/>
			<point x="100" y="246" type="line"/>
			<point x="100" y="217" type="line"/>
			<point x="330" y="217" type="line"/>
		</contour>
		<contour>
			<point x="113" y="720" type="line"/>
			<point x="84" y="720" type="line"/>
			<point x="84" y="125" type="line"/>
			<point x="113" y="125" type="line"/>
		</contour>
		<contour>
			<point x="921" y="778" type="line"/>
			<point x="387" y="778" type="line"/>
			<point x="387" y="749" type="line"/>
			<point x="921" y="749" type="line"/>
		</contour>
		<contour>
			<point x="950" y="402" type="line"/>
			<point x="360" y="402" type="line"/>
			<point x="360" y="373" type="line"/>
			<point x="950" y="373" type="line"/>
		</contour>
		<contour>
			<point x="887" y="273" type="line"/>
			<point x="427" y="273" type="line"/>
			<point x="427" y="-71" type="line"/>
			<point x="456" y="-71" type="line"/>
			<point x="456" y="243" type="line"/>
			<point x="858" y="243" type="line"/>
			<point x="858" y="-67" type="line"/>
			<point x="887" y="-67" type="line"/>
		</contour>
		<contour>
			<point x="872" y="4" type="line"/>
			<point x="442" y="4" type="line"/>
			<point x="442" y="-25" type="line"/>
			<point x="872" y="-25" type="line"/>
		</contour>
		<contour>
			<point x="836" y="612" type="line"/>
			<point x="410" y="612" type="line"/>
			<point x="410" y="582" type="line"/>
			<point x="807" y="582" type="line"/>
			<point x="807" y="385" type="line"/>
			<point x="836" y="385" type="line"/>
		</contour>
		<contour>
			<point x="613" y="767" type="curve"/>
			<point x="584" y="767" type="line"/>
			<point x="560" y="650"/>
			<point x="520" y="481"/>
			<point x="491" y="385" type="curve"/>
			<point x="521" y="385" type="line"/>
			<point x="549" y="478"/>
			<point x="588" y="646"/>
		</contour>
	</outline>
</glyph>
<glyph name="uni553E" format="2">
	<advance width="1000" height="1000"/>
	<unicode hex="553E"/>
	<note>
		cid12408
	</note>
	<outline>
		<contour>
			<point x="898" y="793" type="curve"/>
			<point x="872" y="817" type="line"/>
			<point x="761" y="791"/>
			<point x="545" y="770"/>
			<point x="371" y="761" type="curve"/>
			<point x="375" y="753"/>
			<point x="379" y="743"/>
			<point x="379" y="735" type="curve"/>
			<point x="557" y="744"/>
			<point x="771" y="765"/>
		</contour>
		<contour>
			<point x="925" y="612" type="line"/>
			<point x="350" y="612" type="line"/>
			<point x="350" y="583" type="line"/>
			<point x="925" y="583" type="line"/>
		</contour>
		<contour>
			<point x="950" y="-15" type="line"/>
			<point x="320" y="-15" type="line"/>
			<point x="320" y="-44" type="line"/>
			<point x="950" y="-44" type="line"/>
		</contour>
		<contour>
			<point x="925" y="195" type="line"/>
			<point x="350" y="195" type="line"/>
			<point x="350" y="166" type="line"/>
			<point x="925" y="166" type="line"/>
		</contour>
		<contour>
			<point x="947" y="404" type="line"/>
			<point x="328" y="404" type="line"/>
			<point x="328" y="375" type="line"/>
			<point x="947" y="375" type="line"/>
		</contour>
		<contour>
			<point x="652" y="774" type="line"/>
			<point x="623" y="774" type="line"/>
			<point x="623" y="-29" type="line"/>
			<point x="652" y="-29" type="line"/>
		</contour>
		<contour>
			<point x="478" y="598" type="line"/>
			<point x="449" y="598" type="line"/>
			<point x="449" y="180" type="line"/>
			<point x="478" y="180" type="line"/>
		</contour>
		<contour>
			<point x="826" y="598" type="line"/>
			<point x="797" y="598" type="line"/>
			<point x="797" y="180" type="line"/>
			<point x="826" y="180" type="line"/>
		</contour>
		<contour>
			<point x="306" y="720" type="line"/>
			<point x="99" y="720" type="line"/>
			<point x="99" y="691" type="line"/>
			<point x="277" y="691" type="line"/>
			<point x="277" y="241" type="line"/>
			<point x="99" y="241" type="line"/>
			<point x="99" y="212" type="line"/>
			<point x="306" y="212" type="line"/>
		</contour>
		<contour>
			<point x="113" y="720" type="line"/>
			<point x="84" y="720" type="line"/>
			<point x="84" y="122" type="line"/>
			<point x="113" y="122" type="line"/>
		</contour>
	</outline>
</glyph>
<glyph name="uni5F00" format="2">
	<advance width="1000" height="1000"/>
	<unicode hex="5F00"/>
	<note>
		cid17135
	</note>
	<outline>
		<contour>
			<point x="908" y="758" type="line"/>
			<point x="100" y="758" type="line"/>
			<point x="100" y="728" type="line"/>
			<point x="908" y="728" type="line"/>
		</contour>
		<contour>
			<point x="942" y="402" type="line"/>
			<point x="59" y="402" type="line"/>
			<point x="59" y="373" type="line"/>
			<point x="942" y="373" type="line"/>
		</contour>
		<contour>
			<point x="696" y="749" type="line"/>
			<point x="667" y="749" type="line"/>
			<point x="667" y="-71" type="line"/>
			<point x="696" y="-71" type="line"/>
		</contour>
		<contour>
			<point x="337" y="459" type="curve" smooth="yes"/>
			<point x="337" y="750" type="line"/>
			<point x="308" y="750" type="line"/>
			<point x="308" y="459" type="line" smooth="yes"/>
			<point x="308" y="274"/>
			<point x="284" y="88"/>
			<point x="61" y="-52" type="curve"/>
			<point x="69" y="-57"/>
			<point x="78" y="-66"/>
			<point x="82" y="-73" type="curve"/>
			<point x="312" y="72"/>
			<point x="337" y="264"/>
		</contour>
	</outline>
</glyph>
<glyph name="uni5FC5" format="2">
	<advance width="1000" height="1000"/>
	<unicode hex="5FC5"/>
	<note>
		cid17490
	</note>
	<outline>
		<contour>
			<point x="356" y="19" type="curve" smooth="yes"/>
			<point x="356" y="570" type="line"/>
			<point x="327" y="570" type="line"/>
			<point x="327" y="21" type="line" smooth="yes"/>
			<point x="327" y="-50"/>
			<point x="352" y="-65"/>
			<point x="435" y="-65" type="curve" smooth="yes"/>
			<point x="455" y="-65"/>
			<point x="644" y="-65"/>
			<point x="665" y="-65" type="curve" smooth="yes"/>
			<point x="759" y="-65"/>
			<point x="771" y="-16"/>
			<point x="779" y="162" type="curve"/>
			<point x="770" y="165"/>
			<point x="759" y="171"/>
			<point x="749" y="178" type="curve"/>
			<point x="742" y="2"/>
			<point x="732" y="-36"/>
			<point x="667" y="-36" type="curve" smooth="yes"/>
			<point x="624" y="-36"/>
			<point x="463" y="-36"/>
			<point x="432" y="-36" type="curve" smooth="yes"/>
			<point x="371" y="-36"/>
			<point x="356" y="-24"/>
		</contour>
		<contour>
			<point x="334" y="826" type="curve"/>
			<point x="317" y="805" type="line"/>
			<point x="426" y="760"/>
			<point x="542" y="696"/>
			<point x="618" y="639" type="curve"/>
			<point x="637" y="664" type="line"/>
			<point x="559" y="721"/>
			<point x="443" y="783"/>
		</contour>
		<contour>
			<point x="182" y="487" type="curve"/>
			<point x="155" y="493" type="line"/>
			<point x="139" y="357"/>
			<point x="94" y="230"/>
			<point x="39" y="163" type="curve"/>
			<point x="63" y="146" type="line"/>
			<point x="120" y="216"/>
			<point x="166" y="347"/>
		</contour>
		<contour>
			<point x="786" y="495" type="curve"/>
			<point x="761" y="485" type="line"/>
			<point x="834" y="380"/>
			<point x="908" y="239"/>
			<point x="936" y="145" type="curve"/>
			<point x="964" y="157" type="line"/>
			<point x="935" y="249"/>
			<point x="862" y="390"/>
		</contour>
		<contour>
			<point x="846" y="757" type="curve"/>
			<point x="818" y="770" type="line"/>
			<point x="662" y="460"/>
			<point x="392" y="181"/>
			<point x="40" y="23" type="curve"/>
			<point x="47" y="17"/>
			<point x="56" y="7"/>
			<point x="60" y="0" type="curve"/>
			<point x="414" y="164"/>
			<point x="679" y="440"/>
		</contour>
	</outline>
</glyph>
<glyph name="uni5FEB" format="2">
	<advance width="1000" height="1000"/>
	<unicode hex="5FEB"/>
	<note>
		cid17549
	</note>
	<outline>
		<contour>
			<point x="853" y="663" type="line"/>
			<point x="398" y="663" type="line"/>
			<point x="398" y="633" type="line"/>
			<point x="823" y="633" type="line"/>
			<point x="823" y="340" type="line"/>
			<point x="853" y="340" type="line"/>
		</contour>
		<contour>
			<point x="955" y="358" type="line"/>
			<point x="334" y="358" type="line"/>
			<point x="334" y="328" type="line"/>
			<point x="955" y="328" type="line"/>
		</contour>
		<contour>
			<point x="637" y="352" type="curve"/>
			<point x="612" y="344" type="line"/>
			<point x="666" y="153"/>
			<point x="780" y="-8"/>
			<point x="941" y="-73" type="curve"/>
			<point x="946" y="-65"/>
			<point x="956" y="-53"/>
			<point x="964" y="-47" type="curve"/>
			<point x="804" y="11"/>
			<point x="689" y="170"/>
		</contour>
		<contour>
			<point x="628" y="519" type="curve" smooth="yes"/>
			<point x="628" y="831" type="line"/>
			<point x="599" y="831" type="line"/>
			<point x="599" y="518" type="line" smooth="yes"/>
			<point x="599" y="337"/>
			<point x="593" y="102"/>
			<point x="298" y="-50" type="curve"/>
			<point x="304" y="-56"/>
			<point x="314" y="-66"/>
			<point x="318" y="-73" type="curve"/>
			<point x="618" y="87"/>
			<point x="628" y="329"/>
		</contour>
		<contour>
			<point x="234" y="831" type="line"/>
			<point x="205" y="831" type="line"/>
			<point x="205" y="-68" type="line"/>
			<point x="234" y="-68" type="line"/>
		</contour>
		<contour>
			<point x="130" y="638" type="curve"/>
			<point x="101" y="643" type="line"/>
			<point x="98" y="556"/>
			<point x="80" y="450"/>
			<point x="41" y="390" type="curve"/>
			<point x="68" y="377" type="line"/>
			<point x="109" y="441"/>
			<point x="128" y="552"/>
		</contour>
		<contour>
			<point x="302" y="674" type="curve"/>
			<point x="278" y="663" type="line"/>
			<point x="310" y="608"/>
			<point x="343" y="533"/>
			<point x="357" y="487" type="curve"/>
			<point x="382" y="504" type="line"/>
			<point x="370" y="547"/>
			<point x="335" y="620"/>
		</contour>
	</outline>
</glyph>
<glyph name="uni601D" format="2">
	<advance width="1000" height="1000"/>
	<unicode hex="601D"/>
	<note>
		cid17625
	</note>
	<outline>
		<contour>
			<point x="347" y="12" type="curve" smooth="yes"/>
			<point x="347" y="229" type="line"/>
			<point x="317" y="229" type="line"/>
			<point x="317" y="13" type="line" smooth="yes"/>
			<point x="317" y="-41"/>
			<point x="342" y="-51"/>
			<point x="425" y="-51" type="curve" smooth="yes"/>
			<point x="443" y="-51"/>
			<point x="586" y="-51"/>
			<point x="605" y="-51" type="curve" smooth="yes"/>
			<point x="684" y="-51"/>
			<point x="697" y="-20"/>
			<point x="703" y="110" type="curve"/>
			<point x="694" y="112"/>
			<point x="683" y="117"/>
			<point x="674" y="124" type="curve"/>
			<point x="669" y="-3"/>
			<point x="660" y="-21"/>
			<point x="604" y="-21" type="curve" smooth="yes"/>
			<point x="563" y="-21"/>
			<point x="451" y="-21"/>
			<point x="422" y="-21" type="curve" smooth="yes"/>
			<point x="358" y="-21"/>
			<point x="347" y="-15"/>
		</contour>
		<contour>
			<point x="391" y="334" type="curve"/>
			<point x="370" y="313" type="line"/>
			<point x="448" y="279"/>
			<point x="534" y="220"/>
			<point x="574" y="171" type="curve"/>
			<point x="596" y="194" type="line"/>
			<point x="555" y="243"/>
			<point x="470" y="300"/>
		</contour>
		<contour>
			<point x="760" y="231" type="curve"/>
			<point x="735" y="216" type="line"/>
			<point x="814" y="151"/>
			<point x="886" y="63"/>
			<point x="922" y="-13" type="curve"/>
			<point x="949" y="3" type="line"/>
			<point x="910" y="80"/>
			<point x="837" y="168"/>
		</contour>
		<contour>
			<point x="220" y="213" type="curve"/>
			<point x="194" y="221" type="line"/>
			<point x="167" y="121"/>
			<point x="116" y="40"/>
			<point x="51" y="-5" type="curve"/>
			<point x="74" y="-22" type="line"/>
			<point x="137" y="23"/>
			<point x="190" y="107"/>
		</contour>
		<contour>
			<point x="193" y="386" type="line"/>
			<point x="193" y="557" type="line"/>
			<point x="809" y="557" type="line"/>
			<point x="809" y="386" type="line"/>
		</contour>
		<contour>
			<point x="193" y="586" type="line"/>
			<point x="193" y="755" type="line"/>
			<point x="809" y="755" type="line"/>
			<point x="809" y="586" type="line"/>
		</contour>
		<contour>
			<point x="838" y="784" type="line"/>
			<point x="164" y="784" type="line"/>
			<point x="164" y="357" type="line"/>
			<point x="838" y="357" type="line"/>
		</contour>
		<contour>
			<point x="513" y="773" type="line"/>
			<point x="483" y="773" type="line"/>
			<point x="483" y="372" type="line"/>
			<point x="513" y="372" type="line"/>
		</contour>
	</outline>
</glyph>
<glyph name="uni609F" format="2">
	<advance width="1000" height="1000"/>
	<unicode hex="609F"/>
	<note>
		cid17834
	</note>
	<outline>
		<contour>
			<point x="225" y="831" type="line"/>
			<point x="195" y="831" type="line"/>
			<point x="195" y="-68" type="line"/>
			<point x="225" y="-68" type="line"/>
		</contour>
		<contour>
			<point x="120" y="638" type="curve"/>
			<point x="91" y="643" type="line"/>
			<point x="89" y="557"/>
			<point x="72" y="450"/>
			<point x="35" y="390" type="curve"/>
			<point x="61" y="377" type="line"/>
			<point x="100" y="441"/>
			<point x="118" y="553"/>
		</contour>
		<contour>
			<point x="287" y="674" type="curve"/>
			<point x="263" y="663" type="line"/>
			<point x="294" y="607"/>
			<point x="327" y="531"/>
			<point x="339" y="485" type="curve"/>
			<point x="365" y="501" type="line"/>
			<point x="353" y="545"/>
			<point x="320" y="618"/>
		</contour>
		<contour>
			<point x="920" y="782" type="line"/>
			<point x="358" y="782" type="line"/>
			<point x="358" y="753" type="line"/>
			<point x="920" y="753" type="line"/>
		</contour>
		<contour>
			<point x="953" y="401" type="line"/>
			<point x="320" y="401" type="line"/>
			<point x="320" y="372" type="line"/>
			<point x="953" y="372" type="line"/>
		</contour>
		<contour>
			<point x="835" y="614" type="line"/>
			<point x="395" y="614" type="line"/>
			<point x="395" y="584" type="line"/>
			<point x="805" y="584" type="line"/>
			<point x="805" y="394" type="line"/>
			<point x="835" y="394" type="line"/>
		</contour>
		<contour>
			<point x="865" y="268" type="line"/>
			<point x="407" y="268" type="line"/>
			<point x="407" y="-71" type="line"/>
			<point x="436" y="-71" type="line"/>
			<point x="436" y="238" type="line"/>
			<point x="835" y="238" type="line"/>
			<point x="835" y="-68" type="line"/>
			<point x="865" y="-68" type="line"/>
		</contour>
		<contour>
			<point x="851" y="4" type="line"/>
			<point x="421" y="4" type="line"/>
			<point x="421" y="-25" type="line"/>
			<point x="851" y="-25" type="line"/>
		</contour>
		<contour>
			<point x="606" y="770" type="curve"/>
			<point x="576" y="774" type="line"/>
			<point x="552" y="657"/>
			<point x="513" y="486"/>
			<point x="484" y="389" type="curve"/>
			<point x="516" y="389" type="line"/>
			<point x="543" y="483"/>
			<point x="582" y="651"/>
		</contour>
	</outline>
</glyph>
<glyph name="uni60C5" format="2">
	<advance width="1000" height="1000"/>
	<unicode hex="60C5"/>
	<note>
		cid62292
	</note>
	<outline>
		<contour>
			<point x="225" y="831" type="line"/>
			<point x="195" y="831" type="line"/>
			<point x="195" y="-68" type="line"/>
			<point x="225" y="-68" type="line"/>
		</contour>
		<contour>
			<point x="120" y="638" type="curve"/>
			<point x="91" y="643" type="line"/>
			<point x="89" y="557"/>
			<point x="72" y="450"/>
			<point x="35" y="390" type="curve"/>
			<point x="61" y="377" type="line"/>
			<point x="100" y="441"/>
			<point x="118" y="553"/>
		</contour>
		<contour>
			<point x="288" y="697" type="curve"/>
			<point x="263" y="685" type="line"/>
			<point x="292" y="635"/>
			<point x="319" y="574"/>
			<point x="333" y="528" type="curve"/>
			<point x="360" y="544" type="line"/>
			<point x="344" y="590"/>
			<point x="317" y="649"/>
		</contour>
		<contour>
			<point x="917" y="740" type="line"/>
			<point x="379" y="740" type="line"/>
			<point x="379" y="711" type="line"/>
			<point x="917" y="711" type="line"/>
		</contour>
		<contour>
			<point x="952" y="495" type="line"/>
			<point x="341" y="495" type="line"/>
			<point x="341" y="466" type="line"/>
			<point x="952" y="466" type="line"/>
		</contour>
		<contour>
			<point x="886" y="623" type="line"/>
			<point x="414" y="623" type="line"/>
			<point x="414" y="594" type="line"/>
			<point x="886" y="594" type="line"/>
		</contour>
		<contour>
			<point x="658" y="831" type="line"/>
			<point x="628" y="831" type="line"/>
			<point x="628" y="478" type="line"/>
			<point x="658" y="478" type="line"/>
		</contour>
		<contour>
			<point x="846" y="252" type="line"/>
			<point x="443" y="252" type="line"/>
			<point x="443" y="222" type="line"/>
			<point x="846" y="222" type="line"/>
		</contour>
		<contour>
			<point x="846" y="122" type="line"/>
			<point x="443" y="122" type="line"/>
			<point x="443" y="93" type="line"/>
			<point x="846" y="93" type="line"/>
		</contour>
		<contour>
			<point x="846" y="377" type="line"/>
			<point x="428" y="377" type="line"/>
			<point x="428" y="-69" type="line"/>
			<point x="458" y="-69" type="line"/>
			<point x="458" y="348" type="line"/>
			<point x="846" y="348" type="line"/>
		</contour>
		<contour>
			<point x="859" y="-26" type="curve" smooth="yes"/>
			<point x="859" y="377" type="line"/>
			<point x="830" y="377" type="line"/>
			<point x="830" y="-27" type="line" smooth="yes"/>
			<point x="830" y="-38"/>
			<point x="826" y="-42"/>
			<point x="813" y="-43" type="curve" smooth="yes"/>
			<point x="801" y="-43"/>
			<point x="760" y="-44"/>
			<point x="706" y="-42" type="curve"/>
			<point x="711" y="-51"/>
			<point x="715" y="-63"/>
			<point x="717" y="-70" type="curve"/>
			<point x="780" y="-70"/>
			<point x="816" y="-70"/>
			<point x="835" y="-65" type="curve" smooth="yes"/>
			<point x="854" y="-60"/>
			<point x="859" y="-49"/>
		</contour>
	</outline>
</glyph>
<glyph name="uni60F3" format="2">
	<advance width="1000" height="1000"/>
	<unicode hex="60F3"/>
	<note>
		cid17974
	</note>
	<outline>
		<contour>
			<point x="469" y="674" type="line"/>
			<point x="62" y="674" type="line"/>
			<point x="62" y="645" type="line"/>
			<point x="469" y="645" type="line"/>
		</contour>
		<contour>
			<point x="292" y="827" type="line"/>
			<point x="263" y="827" type="line"/>
			<point x="263" y="263" type="line"/>
			<point x="292" y="263" type="line"/>
		</contour>
		<contour>
			<point x="284" y="651" type="curve"/>
			<point x="261" y="661" type="line"/>
			<point x="215" y="539"/>
			<point x="125" y="410"/>
			<point x="41" y="352" type="curve"/>
			<point x="48" y="346"/>
			<point x="57" y="337"/>
			<point x="63" y="329" type="curve"/>
			<point x="146" y="394"/>
			<point x="237" y="525"/>
		</contour>
		<contour>
			<point x="286" y="573" type="curve"/>
			<point x="269" y="557" type="line"/>
			<point x="306" y="531"/>
			<point x="416" y="442"/>
			<point x="448" y="412" type="curve"/>
			<point x="467" y="437" type="line"/>
			<point x="438" y="461"/>
			<point x="319" y="552"/>
		</contour>
		<contour>
			<point x="546" y="460" type="line"/>
			<point x="546" y="589" type="line"/>
			<point x="861" y="589" type="line"/>
			<point x="861" y="460" type="line"/>
		</contour>
		<contour>
			<point x="546" y="300" type="line"/>
			<point x="546" y="430" type="line"/>
			<point x="861" y="430" type="line"/>
			<point x="861" y="300" type="line"/>
		</contour>
		<contour>
			<point x="546" y="619" type="line"/>
			<point x="546" y="746" type="line"/>
			<point x="861" y="746" type="line"/>
			<point x="861" y="619" type="line"/>
		</contour>
		<contour>
			<point x="890" y="775" type="line"/>
			<point x="517" y="775" type="line"/>
			<point x="517" y="271" type="line"/>
			<point x="890" y="271" type="line"/>
		</contour>
		<contour>
			<point x="338" y="-5" type="curve" smooth="yes"/>
			<point x="338" y="185" type="line"/>
			<point x="309" y="185" type="line"/>
			<point x="309" y="-5" type="line" smooth="yes"/>
			<point x="309" y="-56"/>
			<point x="331" y="-64"/>
			<point x="413" y="-64" type="curve" smooth="yes"/>
			<point x="430" y="-64"/>
			<point x="625" y="-64"/>
			<point x="644" y="-64" type="curve" smooth="yes"/>
			<point x="715" y="-64"/>
			<point x="727" y="-39"/>
			<point x="732" y="68" type="curve"/>
			<point x="723" y="70"/>
			<point x="712" y="74"/>
			<point x="703" y="80" type="curve"/>
			<point x="699" y="-21"/>
			<point x="691" y="-34"/>
			<point x="642" y="-34" type="curve" smooth="yes"/>
			<point x="603" y="-34"/>
			<point x="438" y="-34"/>
			<point x="410" y="-34" type="curve" smooth="yes"/>
			<point x="349" y="-34"/>
			<point x="338" y="-28"/>
		</contour>
		<contour>
			<point x="413" y="257" type="curve"/>
			<point x="393" y="239" type="line"/>
			<point x="466" y="201"/>
			<point x="545" y="140"/>
			<point x="583" y="94" type="curve"/>
			<point x="604" y="114" type="line"/>
			<point x="566" y="161"/>
			<point x="485" y="220"/>
		</contour>
		<contour>
			<point x="760" y="189" type="curve"/>
			<point x="736" y="173" type="line"/>
			<point x="813" y="116"/>
			<point x="891" y="29"/>
			<point x="922" y="-33" type="curve"/>
			<point x="947" y="-17" type="line"/>
			<point x="916" y="47"/>
			<point x="836" y="131"/>
		</contour>
		<contour>
			<point x="223" y="165" type="curve"/>
			<point x="197" y="173" type="line"/>
			<point x="175" y="99"/>
			<point x="129" y="22"/>
			<point x="52" y="-20" type="curve"/>
			<point x="75" y="-36" type="line"/>
			<point x="154" y="8"/>
			<point x="197" y="87"/>
		</contour>
	</outline>
</glyph>
<glyph name="uni6211" format="2">
	<advance width="1000" height="1000"/>
	<unicode hex="6211"/>
	<note>
		cid18520
	</note>
	<outline>
		<contour>
			<point x="735" y="807" type="curve"/>
			<point x="711" y="790" type="line"/>
			<point x="783" y="736"/>
			<point x="849" y="668"/>
			<point x="882" y="613" type="curve"/>
			<point x="908" y="633" type="line"/>
			<point x="874" y="686"/>
			<point x="807" y="753"/>
		</contour>
		<contour>
			<point x="940" y="523" type="line"/>
			<point x="62" y="523" type="line"/>
			<point x="62" y="494" type="line"/>
			<point x="940" y="494" type="line"/>
		</contour>
		<contour>
			<point x="51" y="219" type="curve"/>
			<point x="65" y="189" type="line"/>
			<point x="188" y="220"/>
			<point x="368" y="266"/>
			<point x="534" y="309" type="curve"/>
			<point x="531" y="335" type="line"/>
			<point x="354" y="291"/>
			<point x="167" y="245"/>
		</contour>
		<contour>
			<point x="330" y="-17" type="curve" smooth="yes"/>
			<point x="330" y="750" type="line"/>
			<point x="301" y="750" type="line"/>
			<point x="301" y="-18" type="line" smooth="yes"/>
			<point x="301" y="-36"/>
			<point x="295" y="-41"/>
			<point x="278" y="-42" type="curve" smooth="yes"/>
			<point x="260" y="-43"/>
			<point x="200" y="-44"/>
			<point x="129" y="-42" type="curve"/>
			<point x="133" y="-51"/>
			<point x="139" y="-65"/>
			<point x="141" y="-72" type="curve"/>
			<point x="225" y="-73"/>
			<point x="273" y="-72"/>
			<point x="296" y="-67" type="curve" smooth="yes"/>
			<point x="320" y="-62"/>
			<point x="330" y="-50"/>
		</contour>
		<contour>
			<point x="501" y="789" type="curve"/>
			<point x="476" y="813" type="line"/>
			<point x="387" y="776"/>
			<point x="219" y="739"/>
			<point x="79" y="715" type="curve"/>
			<point x="84" y="707"/>
			<point x="88" y="697"/>
			<point x="90" y="690" type="curve"/>
			<point x="231" y="714"/>
			<point x="399" y="749"/>
		</contour>
		<contour>
			<point x="609" y="822" type="curve"/>
			<point x="578" y="822" type="line"/>
			<point x="584" y="318"/>
			<point x="683" y="-73"/>
			<point x="868" y="-73" type="curve" smooth="yes"/>
			<point x="927" y="-73"/>
			<point x="944" y="-19"/>
			<point x="952" y="136" type="curve"/>
			<point x="943" y="138"/>
			<point x="930" y="144"/>
			<point x="923" y="150" type="curve"/>
			<point x="917" y="11"/>
			<point x="904" y="-43"/>
			<point x="870" y="-43" type="curve" smooth="yes"/>
			<point x="717" y="-43"/>
			<point x="612" y="307"/>
		</contour>
		<contour>
			<point x="876" y="424" type="curve"/>
			<point x="849" y="435" type="line"/>
			<point x="759" y="262"/>
			<point x="593" y="89"/>
			<point x="407" y="-5" type="curve"/>
			<point x="415" y="-11"/>
			<point x="425" y="-20"/>
			<point x="430" y="-27" type="curve"/>
			<point x="617" y="70"/>
			<point x="784" y="244"/>
		</contour>
	</outline>
</glyph>
<glyph name="uni628A" format="2">
	<advance width="1000" height="1000"/>
	<unicode hex="628A"/>
	<note>
		cid18727
	</note>
	<outline>
		<contour>
			<point x="36" y="280" type="curve"/>
			<point x="50" y="250" type="line"/>
			<point x="139" y="279"/>
			<point x="262" y="322"/>
			<point x="378" y="361" type="curve"/>
			<point x="374" y="390" type="line"/>
			<point x="248" y="348"/>
			<point x="120" y="306"/>
		</contour>
		<contour>
			<point x="370" y="615" type="line"/>
			<point x="51" y="615" type="line"/>
			<point x="51" y="585" type="line"/>
			<point x="370" y="585" type="line"/>
		</contour>
		<contour>
			<point x="240" y="-22" type="curve" smooth="yes"/>
			<point x="240" y="830" type="line"/>
			<point x="211" y="830" type="line"/>
			<point x="211" y="-23" type="line" smooth="yes"/>
			<point x="211" y="-38"/>
			<point x="205" y="-42"/>
			<point x="192" y="-42" type="curve" smooth="yes"/>
			<point x="180" y="-43"/>
			<point x="137" y="-43"/>
			<point x="85" y="-42" type="curve"/>
			<point x="90" y="-51"/>
			<point x="96" y="-64"/>
			<point x="98" y="-70" type="curve"/>
			<point x="161" y="-71"/>
			<point x="194" y="-70"/>
			<point x="213" y="-65" type="curve" smooth="yes"/>
			<point x="231" y="-60"/>
			<point x="240" y="-49"/>
		</contour>
		<contour>
			<point x="885" y="395" type="line"/>
			<point x="445" y="395" type="line"/>
			<point x="445" y="366" type="line"/>
			<point x="885" y="366" type="line"/>
		</contour>
		<contour>
			<point x="899" y="763" type="line"/>
			<point x="441" y="763" type="line"/>
			<point x="441" y="733" type="line"/>
			<point x="869" y="733" type="line"/>
			<point x="869" y="319" type="line"/>
			<point x="899" y="319" type="line"/>
		</contour>
		<contour>
			<point x="457" y="45" type="curve" smooth="yes"/>
			<point x="457" y="763" type="line"/>
			<point x="428" y="763" type="line"/>
			<point x="428" y="46" type="line" smooth="yes"/>
			<point x="428" y="-33"/>
			<point x="456" y="-52"/>
			<point x="545" y="-52" type="curve" smooth="yes"/>
			<point x="566" y="-52"/>
			<point x="813" y="-52"/>
			<point x="836" y="-52" type="curve" smooth="yes"/>
			<point x="928" y="-52"/>
			<point x="940" y="-7"/>
			<point x="949" y="133" type="curve"/>
			<point x="939" y="136"/>
			<point x="927" y="141"/>
			<point x="918" y="148" type="curve"/>
			<point x="911" y="13"/>
			<point x="902" y="-23"/>
			<point x="840" y="-23" type="curve" smooth="yes"/>
			<point x="793" y="-23"/>
			<point x="575" y="-23"/>
			<point x="541" y="-23" type="curve" smooth="yes"/>
			<point x="472" y="-23"/>
			<point x="457" y="-7"/>
		</contour>
		<contour>
			<point x="673" y="752" type="line"/>
			<point x="644" y="752" type="line"/>
			<point x="644" y="379" type="line"/>
			<point x="673" y="379" type="line"/>
		</contour>
	</outline>
</glyph>
<glyph name="uni64AD" format="2">
	<advance width="1000" height="1000"/>
	<unicode hex="64AD"/>
	<note>
		cid19629
	</note>
	<outline>
		<contour>
			<point x="35" y="296" type="curve"/>
			<point x="46" y="266" type="line"/>
			<point x="128" y="298"/>
			<point x="236" y="343"/>
			<point x="341" y="386" type="curve"/>
			<point x="335" y="416" type="line"/>
			<point x="223" y="371"/>
			<point x="109" y="325"/>
		</contour>
		<contour>
			<point x="348" y="617" type="line"/>
			<point x="47" y="617" type="line"/>
			<point x="47" y="587" type="line"/>
			<point x="348" y="587" type="line"/>
		</contour>
		<contour>
			<point x="222" y="-23" type="curve" smooth="yes"/>
			<point x="222" y="830" type="line"/>
			<point x="192" y="830" type="line"/>
			<point x="192" y="-23" type="line" smooth="yes"/>
			<point x="192" y="-38"/>
			<point x="186" y="-42"/>
			<point x="174" y="-42" type="curve" smooth="yes"/>
			<point x="162" y="-43"/>
			<point x="120" y="-43"/>
			<point x="69" y="-42" type="curve"/>
			<point x="74" y="-51"/>
			<point x="79" y="-64"/>
			<point x="81" y="-70" type="curve"/>
			<point x="143" y="-71"/>
			<point x="177" y="-70"/>
			<point x="194" y="-65" type="curve" smooth="yes"/>
			<point x="213" y="-60"/>
			<point x="222" y="-50"/>
		</contour>
		<contour>
			<point x="893" y="801" type="curve"/>
			<point x="868" y="824" type="line"/>
			<point x="759" y="795"/>
			<point x="539" y="774"/>
			<point x="366" y="765" type="curve"/>
			<point x="370" y="757"/>
			<point x="375" y="746"/>
			<point x="376" y="738" type="curve"/>
			<point x="552" y="747"/>
			<point x="770" y="768"/>
		</contour>
		<contour>
			<point x="943" y="559" type="line"/>
			<point x="347" y="559" type="line"/>
			<point x="347" y="529" type="line"/>
			<point x="943" y="529" type="line"/>
		</contour>
		<contour>
			<point x="656" y="778" type="line"/>
			<point x="626" y="778" type="line"/>
			<point x="626" y="324" type="line"/>
			<point x="656" y="324" type="line"/>
		</contour>
		<contour>
			<point x="656" y="290" type="line"/>
			<point x="626" y="290" type="line"/>
			<point x="626" y="-6" type="line"/>
			<point x="656" y="-6" type="line"/>
		</contour>
		<contour>
			<point x="462" y="713" type="curve"/>
			<point x="436" y="702" type="line"/>
			<point x="465" y="662"/>
			<point x="495" y="608"/>
			<point x="508" y="573" type="curve"/>
			<point x="534" y="587" type="line"/>
			<point x="522" y="621"/>
			<point x="491" y="673"/>
		</contour>
		<contour>
			<point x="853" y="716" type="curve"/>
			<point x="825" y="730" type="line"/>
			<point x="806" y="686"/>
			<point x="769" y="619"/>
			<point x="740" y="578" type="curve"/>
			<point x="763" y="566" type="line"/>
			<point x="791" y="605"/>
			<point x="826" y="666"/>
		</contour>
		<contour>
			<point x="626" y="534" type="curve"/>
			<point x="599" y="547" type="line"/>
			<point x="535" y="448"/>
			<point x="411" y="348"/>
			<point x="304" y="303" type="curve"/>
			<point x="312" y="297"/>
			<point x="322" y="286"/>
			<point x="327" y="278" type="curve"/>
			<point x="432" y="328"/>
			<point x="560" y="430"/>
		</contour>
		<contour>
			<point x="684" y="547" type="curve"/>
			<point x="658" y="534" type="line"/>
			<point x="721" y="442"/>
			<point x="842" y="345"/>
			<point x="939" y="299" type="curve"/>
			<point x="945" y="307"/>
			<point x="955" y="318"/>
			<point x="962" y="324" type="curve"/>
			<point x="864" y="366"/>
			<point x="745" y="457"/>
		</contour>
		<contour>
			<point x="871" y="298" type="line"/>
			<point x="417" y="298" type="line"/>
			<point x="417" y="-70" type="line"/>
			<point x="446" y="-70" type="line"/>
			<point x="446" y="269" type="line"/>
			<point x="842" y="269" type="line"/>
			<point x="842" y="-64" type="line"/>
			<point x="871" y="-64" type="line"/>
		</contour>
		<contour>
			<point x="857" y="156" type="line"/>
			<point x="432" y="156" type="line"/>
			<point x="432" y="127" type="line"/>
			<point x="857" y="127" type="line"/>
		</contour>
		<contour>
			<point x="857" y="10" type="line"/>
			<point x="432" y="10" type="line"/>
			<point x="432" y="-19" type="line"/>
			<point x="857" y="-19" type="line"/>
		</contour>
	</outline>
</glyph>
<glyph name="uni6709" format="2">
	<advance width="1000" height="1000"/>
	<unicode hex="6709"/>
	<note>
		cid20695
	</note>
	<outline>
		<contour>
			<point x="932" y="692" type="line"/>
			<point x="72" y="692" type="line"/>
			<point x="72" y="663" type="line"/>
			<point x="932" y="663" type="line"/>
		</contour>
		<contour>
			<point x="795" y="338" type="line"/>
			<point x="291" y="338" type="line"/>
			<point x="291" y="309" type="line"/>
			<point x="795" y="309" type="line"/>
		</contour>
		<contour>
			<point x="789" y="510" type="line"/>
			<point x="274" y="510" type="line"/>
			<point x="274" y="-70" type="line"/>
			<point x="303" y="-70" type="line"/>
			<point x="303" y="480" type="line"/>
			<point x="789" y="480" type="line"/>
		</contour>
		<contour>
			<point x="809" y="-18" type="curve" smooth="yes"/>
			<point x="809" y="510" type="line"/>
			<point x="779" y="510" type="line"/>
			<point x="779" y="-18" type="line" smooth="yes"/>
			<point x="779" y="-34"/>
			<point x="774" y="-40"/>
			<point x="756" y="-41" type="curve" smooth="yes"/>
			<point x="736" y="-42"/>
			<point x="673" y="-43"/>
			<point x="592" y="-40" type="curve"/>
			<point x="597" y="-50"/>
			<point x="603" y="-62"/>
			<point x="605" y="-70" type="curve"/>
			<point x="696" y="-70"/>
			<point x="750" y="-71"/>
			<point x="775" y="-66" type="curve" smooth="yes"/>
			<point x="801" y="-60"/>
			<point x="809" y="-47"/>
		</contour>
		<contour>
			<point x="445" y="822" type="curve"/>
			<point x="417" y="830" type="line"/>
			<point x="358" y="623"/>
			<point x="235" y="414"/>
			<point x="55" y="285" type="curve"/>
			<point x="60" y="279"/>
			<point x="69" y="269"/>
			<point x="72" y="262" type="curve"/>
			<point x="258" y="395"/>
			<point x="379" y="609"/>
		</contour>
		<contour>
			<point x="795" y="165" type="line"/>
			<point x="291" y="165" type="line"/>
			<point x="291" y="135" type="line"/>
			<point x="795" y="135" type="line"/>
		</contour>
	</outline>
</glyph>
<glyph name="uni675E" format="2">
	<advance width="1000" height="1000"/>
	<unicode hex="675E"/>
	<note>
		cid20831
	</note>
	<outline>
		<contour>
			<point x="880" y="406" type="line"/>
			<point x="487" y="406" type="line"/>
			<point x="487" y="377" type="line"/>
			<point x="880" y="377" type="line"/>
		</contour>
		<contour>
			<point x="501" y="41" type="curve" smooth="yes"/>
			<point x="501" y="406" type="line"/>
			<point x="472" y="406" type="line"/>
			<point x="472" y="43" type="line" smooth="yes"/>
			<point x="472" y="-36"/>
			<point x="498" y="-54"/>
			<point x="588" y="-54" type="curve" smooth="yes"/>
			<point x="609" y="-54"/>
			<point x="824" y="-54"/>
			<point x="846" y="-54" type="curve" smooth="yes"/>
			<point x="937" y="-54"/>
			<point x="949" y="-9"/>
			<point x="957" y="134" type="curve"/>
			<point x="948" y="136"/>
			<point x="937" y="140"/>
			<point x="928" y="147" type="curve"/>
			<point x="921" y="9"/>
			<point x="913" y="-26"/>
			<point x="849" y="-26" type="curve" smooth="yes"/>
			<point x="804" y="-26"/>
			<point x="618" y="-26"/>
			<point x="584" y="-26" type="curve" smooth="yes"/>
			<point x="516" y="-26"/>
			<point x="501" y="-11"/>
		</contour>
		<contour>
			<point x="891" y="757" type="line"/>
			<point x="455" y="757" type="line"/>
			<point x="455" y="727" type="line"/>
			<point x="862" y="727" type="line"/>
			<point x="862" y="328" type="line"/>
			<point x="891" y="328" type="line"/>
		</contour>
		<contour>
			<point x="418" y="608" type="line"/>
			<point x="60" y="608" type="line"/>
			<point x="60" y="578" type="line"/>
			<point x="418" y="578" type="line"/>
		</contour>
		<contour>
			<point x="267" y="831" type="line"/>
			<point x="237" y="831" type="line"/>
			<point x="237" y="-68" type="line"/>
			<point x="267" y="-68" type="line"/>
		</contour>
		<contour>
			<point x="258" y="590" type="curve"/>
			<point x="231" y="598" type="line"/>
			<point x="197" y="436"/>
			<point x="116" y="244"/>
			<point x="41" y="150" type="curve"/>
			<point x="48" y="145"/>
			<point x="58" y="134"/>
			<point x="64" y="127" type="curve"/>
			<point x="140" y="226"/>
			<point x="222" y="427"/>
		</contour>
		<contour>
			<point x="262" y="445" type="curve"/>
			<point x="242" y="428" type="line"/>
			<point x="276" y="402"/>
			<point x="372" y="308"/>
			<point x="398" y="276" type="curve"/>
			<point x="421" y="300" type="line"/>
			<point x="397" y="325"/>
			<point x="290" y="423"/>
		</contour>
	</outline>
</glyph>
<glyph name="uni6C5F" format="2">
	<advance width="1000" height="1000"/>
	<unicode hex="6C5F"/>
	<note>
		cid23073
	</note>
	<outline>
		<contour>
			<point x="115" y="820" type="curve"/>
			<point x="98" y="798" type="line"/>
			<point x="168" y="769"/>
			<point x="248" y="722"/>
			<point x="289" y="685" type="curve"/>
			<point x="307" y="712" type="line"/>
			<point x="266" y="747"/>
			<point x="184" y="793"/>
		</contour>
		<contour>
			<point x="65" y="548" type="curve"/>
			<point x="49" y="524" type="line"/>
			<point x="120" y="501"/>
			<point x="204" y="461"/>
			<point x="248" y="429" type="curve"/>
			<point x="263" y="457" type="line"/>
			<point x="220" y="488"/>
			<point x="134" y="526"/>
		</contour>
		<contour>
			<point x="81" y="-35" type="curve"/>
			<point x="106" y="-56" type="line"/>
			<point x="164" y="33"/>
			<point x="240" y="169"/>
			<point x="293" y="275" type="curve"/>
			<point x="272" y="294" type="line"/>
			<point x="216" y="182"/>
			<point x="135" y="43"/>
		</contour>
		<contour>
			<point x="910" y="726" type="line"/>
			<point x="346" y="726" type="line"/>
			<point x="346" y="697" type="line"/>
			<point x="910" y="697" type="line"/>
		</contour>
		<contour>
			<point x="951" y="16" type="line"/>
			<point x="267" y="16" type="line"/>
			<point x="267" y="-14" type="line"/>
			<point x="951" y="-14" type="line"/>
		</contour>
		<contour>
			<point x="623" y="718" type="line"/>
			<point x="593" y="718" type="line"/>
			<point x="593" y="-2" type="line"/>
			<point x="623" y="-2" type="line"/>
		</contour>
	</outline>
</glyph>
<glyph name="uni706F" format="2">
	<advance width="1000" height="1000"/>
	<unicode hex="706F"/>
	<note>
		cid24841
	</note>
	<outline>
		<contour>
			<point x="951" y="748" type="line"/>
			<point x="438" y="748" type="line"/>
			<point x="438" y="719" type="line"/>
			<point x="951" y="719" type="line"/>
		</contour>
		<contour>
			<point x="747" y="-11" type="curve" smooth="yes"/>
			<point x="747" y="738" type="line"/>
			<point x="717" y="738" type="line"/>
			<point x="717" y="-12" type="line" smooth="yes"/>
			<point x="717" y="-31"/>
			<point x="711" y="-37"/>
			<point x="691" y="-38" type="curve" smooth="yes"/>
			<point x="669" y="-40"/>
			<point x="599" y="-40"/>
			<point x="524" y="-38" type="curve"/>
			<point x="529" y="-46"/>
			<point x="535" y="-60"/>
			<point x="537" y="-70" type="curve"/>
			<point x="623" y="-70"/>
			<point x="682" y="-70"/>
			<point x="710" y="-65" type="curve" smooth="yes"/>
			<point x="737" y="-59"/>
			<point x="747" y="-45"/>
		</contour>
		<contour>
			<point x="267" y="489" type="curve" smooth="yes"/>
			<point x="267" y="817" type="line"/>
			<point x="237" y="817" type="line"/>
			<point x="237" y="489" type="line" smooth="yes"/>
			<point x="237" y="297"/>
			<point x="219" y="106"/>
			<point x="45" y="-44" type="curve"/>
			<point x="52" y="-49"/>
			<point x="63" y="-58"/>
			<point x="67" y="-64" type="curve"/>
			<point x="246" y="91"/>
			<point x="267" y="287"/>
		</contour>
		<contour>
			<point x="432" y="640" type="curve"/>
			<point x="403" y="654" type="line"/>
			<point x="380" y="593"/>
			<point x="334" y="501"/>
			<point x="299" y="448" type="curve"/>
			<point x="323" y="435" type="line"/>
			<point x="357" y="488"/>
			<point x="400" y="573"/>
		</contour>
		<contour>
			<point x="246" y="270" type="curve"/>
			<point x="226" y="254" type="line"/>
			<point x="264" y="216"/>
			<point x="378" y="89"/>
			<point x="411" y="46" type="curve"/>
			<point x="433" y="70" type="line"/>
			<point x="404" y="103"/>
			<point x="280" y="239"/>
		</contour>
		<contour>
			<point x="159" y="629" type="curve"/>
			<point x="133" y="634" type="line"/>
			<point x="124" y="541"/>
			<point x="97" y="448"/>
			<point x="46" y="398" type="curve"/>
			<point x="69" y="380" type="line"/>
			<point x="124" y="436"/>
			<point x="149" y="535"/>
		</contour>
	</outline>
</glyph>
<glyph name="uni7247" format="2">
	<advance width="1000" height="1000"/>
	<unicode hex="7247"/>
	<note>
		cid25780
	</note>
	<outline>
		<contour>
			<point x="920" y="562" type="line"/>
			<point x="214" y="562" type="line"/>
			<point x="214" y="532" type="line"/>
			<point x="920" y="532" type="line"/>
		</contour>
		<contour>
			<point x="580" y="829" type="line"/>
			<point x="551" y="829" type="line"/>
			<point x="551" y="542" type="line"/>
			<point x="580" y="542" type="line"/>
		</contour>
		<contour>
			<point x="228" y="472" type="curve" smooth="yes"/>
			<point x="228" y="800" type="line"/>
			<point x="198" y="800" type="line"/>
			<point x="198" y="471" type="line" smooth="yes"/>
			<point x="198" y="285"/>
			<point x="184" y="100"/>
			<point x="53" y="-50" type="curve"/>
			<point x="61" y="-54"/>
			<point x="71" y="-63"/>
			<point x="76" y="-68" type="curve"/>
			<point x="212" y="86"/>
			<point x="228" y="277"/>
		</contour>
		<contour>
			<point x="688" y="340" type="line"/>
			<point x="211" y="340" type="line"/>
			<point x="211" y="311" type="line"/>
			<point x="658" y="311" type="line"/>
			<point x="658" y="-71" type="line"/>
			<point x="688" y="-71" type="line"/>
		</contour>
	</outline>
</glyph>
<glyph name="uni7269" format="2">
	<advance width="1000" height="1000"/>
	<unicode hex="7269"/>
	<note>
		cid25851
	</note>
	<outline>
		<contour>
			<point x="556" y="824" type="curve"/>
			<point x="527" y="830" type="line"/>
			<point x="498" y="674"/>
			<point x="435" y="526"/>
			<point x="364" y="447" type="curve"/>
			<point x="372" y="444"/>
			<point x="384" y="436"/>
			<point x="390" y="430" type="curve"/>
			<point x="461" y="511"/>
			<point x="525" y="663"/>
		</contour>
		<contour>
			<point x="935" y="631" type="curve"/>
			<point x="906" y="631" type="line"/>
			<point x="906" y="622" type="line"/>
			<point x="890" y="189"/>
			<point x="868" y="15"/>
			<point x="830" y="-26" type="curve" smooth="yes"/>
			<point x="819" y="-38"/>
			<point x="808" y="-40"/>
			<point x="790" y="-40" type="curve" smooth="yes"/>
			<point x="771" y="-40"/>
			<point x="724" y="-39"/>
			<point x="671" y="-35" type="curve"/>
			<point x="676" y="-43"/>
			<point x="680" y="-57"/>
			<point x="680" y="-66" type="curve"/>
			<point x="724" y="-70"/>
			<point x="769" y="-71"/>
			<point x="794" y="-70" type="curve" smooth="yes"/>
			<point x="822" y="-69"/>
			<point x="838" y="-64"/>
			<point x="856" y="-43" type="curve" smooth="yes"/>
			<point x="898" y="5"/>
			<point x="919" y="165"/>
			<point x="935" y="608" type="curve"/>
			<point x="935" y="614"/>
			<point x="935" y="631"/>
		</contour>
		<contour>
			<point x="915" y="631" type="line"/>
			<point x="488" y="631" type="line"/>
			<point x="479" y="601" type="line"/>
			<point x="915" y="601" type="line"/>
		</contour>
		<contour>
			<point x="641" y="611" type="curve"/>
			<point x="612" y="620" type="line"/>
			<point x="567" y="359"/>
			<point x="478" y="155"/>
			<point x="364" y="52" type="curve"/>
			<point x="374" y="48"/>
			<point x="386" y="40"/>
			<point x="392" y="34" type="curve"/>
			<point x="507" y="141"/>
			<point x="596" y="348"/>
		</contour>
		<contour>
			<point x="789" y="612" type="curve"/>
			<point x="759" y="620" type="line"/>
			<point x="722" y="300"/>
			<point x="633" y="59"/>
			<point x="511" y="-51" type="curve"/>
			<point x="520" y="-55"/>
			<point x="532" y="-64"/>
			<point x="538" y="-70" type="curve"/>
			<point x="661" y="46"/>
			<point x="751" y="290"/>
		</contour>
		<contour>
			<point x="44" y="266" type="curve"/>
			<point x="55" y="236" type="line"/>
			<point x="152" y="268"/>
			<point x="285" y="311"/>
			<point x="412" y="353" type="curve"/>
			<point x="408" y="379" type="line"/>
			<point x="274" y="336"/>
			<point x="135" y="292"/>
		</contour>
		<contour>
			<point x="268" y="829" type="line"/>
			<point x="238" y="829" type="line"/>
			<point x="238" y="-70" type="line"/>
			<point x="268" y="-70" type="line"/>
		</contour>
		<contour>
			<point x="152" y="770" type="curve"/>
			<point x="122" y="775" type="line"/>
			<point x="107" y="648"/>
			<point x="84" y="519"/>
			<point x="41" y="430" type="curve"/>
			<point x="49" y="427"/>
			<point x="64" y="421"/>
			<point x="70" y="417" type="curve"/>
			<point x="109" y="506"/>
			<point x="135" y="637"/>
		</contour>
		<contour>
			<point x="391" y="614" type="line"/>
			<point x="108" y="614" type="line"/>
			<point x="106" y="584" type="line"/>
			<point x="391" y="584" type="line"/>
		</contour>
	</outline>
</glyph>
<glyph name="uni72D9" format="2">
	<advance width="1000" height="1000"/>
	<unicode hex="72D9"/>
	<note>
		cid26020
	</note>
	<outline>
		<contour>
			<point x="950" y="-11" type="line"/>
			<point x="321" y="-11" type="line"/>
			<point x="321" y="-40" type="line"/>
			<point x="950" y="-40" type="line"/>
		</contour>
		<contour>
			<point x="840" y="523" type="line"/>
			<point x="458" y="523" type="line"/>
			<point x="458" y="494" type="line"/>
			<point x="840" y="494" type="line"/>
		</contour>
		<contour>
			<point x="840" y="260" type="line"/>
			<point x="458" y="260" type="line"/>
			<point x="458" y="230" type="line"/>
			<point x="840" y="230" type="line"/>
		</contour>
		<contour>
			<point x="854" y="780" type="line"/>
			<point x="445" y="780" type="line"/>
			<point x="445" y="-25" type="line"/>
			<point x="474" y="-25" type="line"/>
			<point x="474" y="751" type="line"/>
			<point x="824" y="751" type="line"/>
			<point x="824" y="-25" type="line"/>
			<point x="854" y="-25" type="line"/>
		</contour>
		<contour>
			<point x="92" y="817" type="curve"/>
			<point x="72" y="800" type="line"/>
			<point x="256" y="643"/>
			<point x="278" y="473"/>
			<point x="278" y="294" type="curve" smooth="yes"/>
			<point x="278" y="151"/>
			<point x="267" y="20"/>
			<point x="235" y="-20" type="curve"/>
			<point x="227" y="-32"/>
			<point x="216" y="-37"/>
			<point x="200" y="-39" type="curve" smooth="yes"/>
			<point x="174" y="-42"/>
			<point x="128" y="-42"/>
			<point x="78" y="-38" type="curve"/>
			<point x="84" y="-47"/>
			<point x="89" y="-60"/>
			<point x="90" y="-69" type="curve"/>
			<point x="130" y="-71"/>
			<point x="172" y="-71"/>
			<point x="204" y="-67" type="curve" smooth="yes"/>
			<point x="230" y="-65"/>
			<point x="246" y="-57"/>
			<point x="258" y="-40" type="curve" smooth="yes"/>
			<point x="296" y="11"/>
			<point x="307" y="139"/>
			<point x="307" y="294" type="curve" smooth="yes"/>
			<point x="307" y="479"/>
			<point x="284" y="657"/>
		</contour>
		<contour>
			<point x="294" y="462" type="curve"/>
			<point x="271" y="475" type="line"/>
			<point x="223" y="373"/>
			<point x="126" y="259"/>
			<point x="40" y="204" type="curve"/>
			<point x="48" y="197"/>
			<point x="57" y="186"/>
			<point x="61" y="179" type="curve"/>
			<point x="148" y="241"/>
			<point x="244" y="357"/>
		</contour>
		<contour>
			<point x="350" y="815" type="curve"/>
			<point x="325" y="829" type="line"/>
			<point x="268" y="731"/>
			<point x="158" y="617"/>
			<point x="47" y="536" type="curve"/>
			<point x="54" y="531"/>
			<point x="63" y="523"/>
			<point x="68" y="519" type="curve"/>
			<point x="180" y="603"/>
			<point x="287" y="711"/>
		</contour>
	</outline>
</glyph>
<glyph name="uni76AE" format="2">
	<advance width="1000" height="1000"/>
	<unicode hex="76AE"/>
	<note>
		cid27767
	</note>
	<outline>
		<contour>
			<point x="328" y="404" type="curve"/>
			<point x="302" y="394" type="line"/>
			<point x="405" y="154"/>
			<point x="631" y="-13"/>
			<point x="933" y="-70" type="curve"/>
			<point x="937" y="-63"/>
			<point x="945" y="-52"/>
			<point x="951" y="-45" type="curve"/>
			<point x="652" y="8"/>
			<point x="429" y="169"/>
		</contour>
		<contour>
			<point x="894" y="682" type="line"/>
			<point x="188" y="682" type="line"/>
			<point x="188" y="653" type="line"/>
			<point x="894" y="653" type="line"/>
		</contour>
		<contour>
			<point x="811" y="433" type="line"/>
			<point x="188" y="433" type="line"/>
			<point x="188" y="404" type="line"/>
			<point x="811" y="404" type="line"/>
		</contour>
		<contour>
			<point x="541" y="832" type="line"/>
			<point x="512" y="832" type="line"/>
			<point x="512" y="422" type="line"/>
			<point x="541" y="422" type="line"/>
		</contour>
		<contour>
			<point x="204" y="434" type="curve" smooth="yes"/>
			<point x="204" y="682" type="line"/>
			<point x="175" y="682" type="line"/>
			<point x="175" y="435" type="line" smooth="yes"/>
			<point x="175" y="290"/>
			<point x="161" y="97"/>
			<point x="40" y="-46" type="curve"/>
			<point x="47" y="-50"/>
			<point x="58" y="-60"/>
			<point x="62" y="-66" type="curve"/>
			<point x="188" y="82"/>
			<point x="204" y="285"/>
		</contour>
		<contour>
			<point x="890" y="682" type="line"/>
			<point x="883" y="682" type="line"/>
			<point x="883" y="674" type="line"/>
			<point x="858" y="613"/>
			<point x="823" y="538"/>
			<point x="794" y="493" type="curve"/>
			<point x="820" y="482" type="line"/>
			<point x="850" y="529"/>
			<point x="885" y="608"/>
			<point x="917" y="675" type="curve"/>
			<point x="897" y="684" type="line"/>
		</contour>
		<contour>
			<point x="811" y="433" type="line"/>
			<point x="803" y="433" type="line"/>
			<point x="803" y="426" type="line"/>
			<point x="705" y="153"/>
			<point x="448" y="17"/>
			<point x="168" y="-44" type="curve"/>
			<point x="175" y="-51"/>
			<point x="183" y="-63"/>
			<point x="186" y="-70" type="curve"/>
			<point x="470" y="-5"/>
			<point x="729" y="133"/>
			<point x="836" y="423" type="curve"/>
			<point x="818" y="435" type="line"/>
		</contour>
	</outline>
</glyph>
<glyph name="uni79CB" format="2">
	<advance width="1000" height="1000"/>
	<unicode hex="79CB"/>
	<note>
		cid29092
	</note>
	<outline>
		<contour>
			<point x="282" y="759" type="line"/>
			<point x="253" y="759" type="line"/>
			<point x="253" y="-70" type="line"/>
			<point x="282" y="-70" type="line"/>
		</contour>
		<contour>
			<point x="432" y="547" type="line"/>
			<point x="57" y="547" type="line"/>
			<point x="57" y="518" type="line"/>
			<point x="432" y="518" type="line"/>
		</contour>
		<contour>
			<point x="277" y="530" type="curve"/>
			<point x="253" y="539" type="line"/>
			<point x="212" y="401"/>
			<point x="122" y="236"/>
			<point x="47" y="156" type="curve"/>
			<point x="54" y="151"/>
			<point x="63" y="140"/>
			<point x="68" y="133" type="curve"/>
			<point x="144" y="219"/>
			<point x="233" y="391"/>
		</contour>
		<contour>
			<point x="426" y="792" type="curve"/>
			<point x="398" y="814" type="line"/>
			<point x="325" y="781"/>
			<point x="180" y="750"/>
			<point x="60" y="730" type="curve"/>
			<point x="65" y="722"/>
			<point x="70" y="713"/>
			<point x="72" y="706" type="curve"/>
			<point x="193" y="725"/>
			<point x="337" y="756"/>
		</contour>
		<contour>
			<point x="277" y="437" type="curve"/>
			<point x="260" y="423" type="line"/>
			<point x="290" y="394"/>
			<point x="388" y="283"/>
			<point x="414" y="247" type="curve"/>
			<point x="433" y="270" type="line"/>
			<point x="411" y="298"/>
			<point x="305" y="411"/>
		</contour>
		<contour>
			<point x="692" y="470" type="curve" smooth="yes"/>
			<point x="692" y="827" type="line"/>
			<point x="677" y="827" type="line"/>
			<point x="663" y="827" type="line"/>
			<point x="663" y="470" type="line" smooth="yes"/>
			<point x="663" y="402"/>
			<point x="633" y="91"/>
			<point x="391" y="-48" type="curve"/>
			<point x="397" y="-54"/>
			<point x="406" y="-64"/>
			<point x="410" y="-70" type="curve"/>
			<point x="615" y="49"/>
			<point x="667" y="278"/>
			<point x="677" y="363" type="curve"/>
			<point x="688" y="279"/>
			<point x="735" y="49"/>
			<point x="937" y="-70" type="curve"/>
			<point x="941" y="-64"/>
			<point x="951" y="-52"/>
			<point x="956" y="-46" type="curve"/>
			<point x="720" y="90"/>
			<point x="692" y="402"/>
		</contour>
		<contour>
			<point x="544" y="604" type="curve"/>
			<point x="516" y="610" type="line"/>
			<point x="510" y="507"/>
			<point x="475" y="406"/>
			<point x="425" y="347" type="curve"/>
			<point x="451" y="330" type="line"/>
			<point x="501" y="391"/>
			<point x="537" y="497"/>
		</contour>
		<contour>
			<point x="931" y="601" type="curve"/>
			<point x="901" y="613" type="line"/>
			<point x="870" y="524"/>
			<point x="826" y="423"/>
			<point x="787" y="351" type="curve"/>
			<point x="812" y="340" type="line"/>
			<point x="852" y="413"/>
			<point x="898" y="514"/>
		</contour>
	</outline>
</glyph>
<glyph name="uni800C" format="2">
	<advance width="1000" height="1000"/>
	<unicode hex="800C"/>
	<note>
		cid32289
	</note>
	<outline>
		<contour>
			<point x="385" y="533" type="line"/>
			<point x="356" y="533" type="line"/>
			<point x="356" y="-65" type="line"/>
			<point x="385" y="-65" type="line"/>
		</contour>
		<contour>
			<point x="634" y="533" type="line"/>
			<point x="605" y="533" type="line"/>
			<point x="605" y="-65" type="line"/>
			<point x="634" y="-65" type="line"/>
		</contour>
		<contour>
			<point x="513" y="741" type="curve"/>
			<point x="479" y="748" type="line"/>
			<point x="469" y="689"/>
			<point x="447" y="596"/>
			<point x="429" y="541" type="curve"/>
			<point x="458" y="535" type="line"/>
			<point x="476" y="589"/>
			<point x="496" y="674"/>
		</contour>
		<contour>
			<point x="868" y="550" type="line"/>
			<point x="117" y="550" type="line"/>
			<point x="117" y="-71" type="line"/>
			<point x="146" y="-71" type="line"/>
			<point x="146" y="521" type="line"/>
			<point x="868" y="521" type="line"/>
		</contour>
		<contour>
			<point x="884" y="-16" type="curve" smooth="yes"/>
			<point x="884" y="550" type="line"/>
			<point x="855" y="550" type="line"/>
			<point x="855" y="-17" type="line" smooth="yes"/>
			<point x="855" y="-32"/>
			<point x="851" y="-36"/>
			<point x="834" y="-37" type="curve" smooth="yes"/>
			<point x="817" y="-38"/>
			<point x="761" y="-39"/>
			<point x="689" y="-37" type="curve"/>
			<point x="695" y="-47"/>
			<point x="700" y="-61"/>
			<point x="702" y="-70" type="curve"/>
			<point x="778" y="-70"/>
			<point x="829" y="-70"/>
			<point x="854" y="-64" type="curve" smooth="yes"/>
			<point x="877" y="-58"/>
			<point x="884" y="-45"/>
		</contour>
		<contour>
			<point x="944" y="763" type="line"/>
			<point x="61" y="763" type="line"/>
			<point x="61" y="733" type="line"/>
			<point x="944" y="733" type="line"/>
		</contour>
	</outline>
</glyph>
<glyph name="uni8010" format="2">
	<advance width="1000" height="1000"/>
	<unicode hex="8010"/>
	<note>
		cid32296
	</note>
	<outline>
		<contour>
			<point x="557" y="772" type="line"/>
			<point x="58" y="772" type="line"/>
			<point x="58" y="742" type="line"/>
			<point x="557" y="742" type="line"/>
		</contour>
		<contour>
			<point x="504" y="554" type="line"/>
			<point x="93" y="554" type="line"/>
			<point x="93" y="-70" type="line"/>
			<point x="123" y="-70" type="line"/>
			<point x="123" y="524" type="line"/>
			<point x="504" y="524" type="line"/>
		</contour>
		<contour>
			<point x="520" y="-30" type="curve" smooth="yes"/>
			<point x="520" y="554" type="line"/>
			<point x="490" y="554" type="line"/>
			<point x="490" y="-31" type="line" smooth="yes"/>
			<point x="490" y="-40"/>
			<point x="487" y="-42"/>
			<point x="479" y="-43" type="curve" smooth="yes"/>
			<point x="471" y="-43"/>
			<point x="444" y="-43"/>
			<point x="412" y="-42" type="curve"/>
			<point x="416" y="-51"/>
			<point x="422" y="-63"/>
			<point x="424" y="-70" type="curve"/>
			<point x="463" y="-70"/>
			<point x="486" y="-70"/>
			<point x="501" y="-65" type="curve" smooth="yes"/>
			<point x="515" y="-60"/>
			<point x="520" y="-50"/>
		</contour>
		<contour>
			<point x="255" y="544" type="line"/>
			<point x="226" y="544" type="line"/>
			<point x="226" y="-55" type="line"/>
			<point x="255" y="-55" type="line"/>
		</contour>
		<contour>
			<point x="387" y="544" type="line"/>
			<point x="358" y="544" type="line"/>
			<point x="358" y="-55" type="line"/>
			<point x="387" y="-55" type="line"/>
		</contour>
		<contour>
			<point x="342" y="751" type="curve"/>
			<point x="309" y="760" type="line"/>
			<point x="298" y="696"/>
			<point x="272" y="598"/>
			<point x="251" y="541" type="curve"/>
			<point x="279" y="533" type="line"/>
			<point x="299" y="590"/>
			<point x="323" y="681"/>
		</contour>
		<contour>
			<point x="950" y="568" type="line"/>
			<point x="549" y="568" type="line"/>
			<point x="549" y="539" type="line"/>
			<point x="950" y="539" type="line"/>
		</contour>
		<contour>
			<point x="834" y="-18" type="curve" smooth="yes"/>
			<point x="834" y="825" type="line"/>
			<point x="805" y="825" type="line"/>
			<point x="805" y="-19" type="line" smooth="yes"/>
			<point x="805" y="-37"/>
			<point x="798" y="-42"/>
			<point x="780" y="-43" type="curve" smooth="yes"/>
			<point x="765" y="-44"/>
			<point x="708" y="-45"/>
			<point x="639" y="-43" type="curve"/>
			<point x="644" y="-52"/>
			<point x="649" y="-65"/>
			<point x="652" y="-71" type="curve"/>
			<point x="736" y="-72"/>
			<point x="778" y="-72"/>
			<point x="801" y="-66" type="curve" smooth="yes"/>
			<point x="822" y="-61"/>
			<point x="834" y="-50"/>
		</contour>
		<contour>
			<point x="617" y="414" type="curve"/>
			<point x="589" y="404" type="line"/>
			<point x="635" y="330"/>
			<point x="679" y="232"/>
			<point x="693" y="171" type="curve"/>
			<point x="722" y="182" type="line"/>
			<point x="709" y="243"/>
			<point x="664" y="340"/>
		</contour>
	</outline>
</glyph>
<glyph name="uni9175" format="2">
	<advance width="1000" height="1000"/>
	<unicode hex="9175"/>
	<note>
		cid41017
	</note>
	<outline>
		<contour>
			<point x="674" y="832" type="line"/>
			<point x="645" y="832" type="line"/>
			<point x="645" y="523" type="line"/>
			<point x="674" y="523" type="line"/>
		</contour>
		<contour>
			<point x="952" y="179" type="line"/>
			<point x="475" y="179" type="line"/>
			<point x="475" y="149" type="line"/>
			<point x="952" y="149" type="line"/>
		</contour>
		<contour>
			<point x="824" y="708" type="line"/>
			<point x="488" y="708" type="line"/>
			<point x="488" y="678" type="line"/>
			<point x="824" y="678" type="line"/>
		</contour>
		<contour>
			<point x="950" y="535" type="line"/>
			<point x="466" y="535" type="line"/>
			<point x="466" y="506" type="line"/>
			<point x="950" y="506" type="line"/>
		</contour>
		<contour>
			<point x="881" y="388" type="line"/>
			<point x="524" y="388" type="line"/>
			<point x="524" y="359" type="line"/>
			<point x="881" y="359" type="line"/>
		</contour>
		<contour>
			<point x="725" y="-26" type="curve" smooth="yes"/>
			<point x="725" y="262" type="line"/>
			<point x="696" y="262" type="line"/>
			<point x="696" y="-27" type="line" smooth="yes"/>
			<point x="696" y="-38"/>
			<point x="692" y="-41"/>
			<point x="679" y="-42" type="curve" smooth="yes"/>
			<point x="667" y="-43"/>
			<point x="622" y="-43"/>
			<point x="566" y="-42" type="curve"/>
			<point x="571" y="-50"/>
			<point x="575" y="-61"/>
			<point x="577" y="-68" type="curve"/>
			<point x="646" y="-69"/>
			<point x="683" y="-69"/>
			<point x="702" y="-63" type="curve" smooth="yes"/>
			<point x="721" y="-58"/>
			<point x="725" y="-48"/>
		</contour>
		<contour>
			<point x="876" y="388" type="line"/>
			<point x="869" y="388" type="line"/>
			<point x="869" y="381" type="line"/>
			<point x="828" y="332"/>
			<point x="761" y="282"/>
			<point x="696" y="250" type="curve"/>
			<point x="703" y="245"/>
			<point x="712" y="238"/>
			<point x="717" y="231" type="curve"/>
			<point x="783" y="263"/>
			<point x="856" y="319"/>
			<point x="906" y="376" type="curve"/>
			<point x="883" y="390" type="line"/>
		</contour>
		<contour>
			<point x="926" y="780" type="curve"/>
			<point x="898" y="790" type="line"/>
			<point x="792" y="562"/>
			<point x="628" y="365"/>
			<point x="442" y="242" type="curve"/>
			<point x="450" y="238"/>
			<point x="461" y="229"/>
			<point x="467" y="222" type="curve"/>
			<point x="654" y="349"/>
			<point x="819" y="550"/>
		</contour>
		<contour>
			<point x="443" y="593" type="line"/>
			<point x="73" y="593" type="line"/>
			<point x="73" y="-67" type="line"/>
			<point x="102" y="-67" type="line"/>
			<point x="102" y="564" type="line"/>
			<point x="414" y="564" type="line"/>
			<point x="414" y="-54" type="line"/>
			<point x="443" y="-54" type="line"/>
		</contour>
		<contour>
			<point x="425" y="208" type="line"/>
			<point x="84" y="208" type="line"/>
			<point x="84" y="179" type="line"/>
			<point x="425" y="179" type="line"/>
		</contour>
		<contour>
			<point x="425" y="39" type="line"/>
			<point x="84" y="39" type="line"/>
			<point x="84" y="10" type="line"/>
			<point x="425" y="10" type="line"/>
		</contour>
		<contour>
			<point x="458" y="783" type="line"/>
			<point x="51" y="783" type="line"/>
			<point x="51" y="754" type="line"/>
			<point x="458" y="754" type="line"/>
		</contour>
		<contour>
			<point x="216" y="772" type="line"/>
			<point x="186" y="772" type="line"/>
			<point x="186" y="578" type="line"/>
			<point x="216" y="578" type="line"/>
		</contour>
		<contour>
			<point x="323" y="772" type="line"/>
			<point x="293" y="772" type="line"/>
			<point x="293" y="578" type="line"/>
			<point x="323" y="578" type="line"/>
		</contour>
		<contour>
			<point x="216" y="487" type="curve" smooth="yes"/>
			<point x="216" y="579" type="line"/>
			<point x="186" y="579" type="line"/>
			<point x="186" y="487" type="line" smooth="yes"/>
			<point x="186" y="428"/>
			<point x="172" y="356"/>
			<point x="96" y="300" type="curve"/>
			<point x="103" y="296"/>
			<point x="114" y="287"/>
			<point x="119" y="280" type="curve"/>
			<point x="197" y="340"/>
			<point x="216" y="423"/>
		</contour>
		<contour>
			<point x="323" y="383" type="curve" smooth="yes"/>
			<point x="323" y="579" type="line"/>
			<point x="293" y="579" type="line"/>
			<point x="293" y="383" type="line" smooth="yes"/>
			<point x="293" y="345"/>
			<point x="304" y="340"/>
			<point x="340" y="340" type="curve" smooth="yes"/>
			<point x="347" y="340"/>
			<point x="397" y="340"/>
			<point x="404" y="340" type="curve" smooth="yes"/>
			<point x="428" y="340"/>
			<point x="439" y="348"/>
			<point x="442" y="361" type="curve"/>
			<point x="432" y="364"/>
			<point x="422" y="366"/>
			<point x="415" y="372" type="curve"/>
			<point x="413" y="370"/>
			<point x="410" y="370"/>
			<point x="397" y="370" type="curve" smooth="yes"/>
			<point x="387" y="370"/>
			<point x="348" y="370"/>
			<point x="341" y="370" type="curve" smooth="yes"/>
			<point x="325" y="370"/>
			<point x="323" y="372"/>
		</contour>
	</outline>
</glyph>
<glyph name="uni9633" format="2">
	<advance width="1000" height="1000"/>
	<unicode hex="9633"/>
	<note>
		cid43094
	</note>
	<outline>
		<contour>
			<point x="900" y="781" type="line"/>
			<point x="462" y="781" type="line"/>
			<point x="462" y="-70" type="line"/>
			<point x="491" y="-70" type="line"/>
			<point x="491" y="752" type="line"/>
			<point x="871" y="752" type="line"/>
			<point x="871" y="-62" type="line"/>
			<point x="900" y="-62" type="line"/>
		</contour>
		<contour>
			<point x="881" y="17" type="line"/>
			<point x="476" y="17" type="line"/>
			<point x="476" y="-12" type="line"/>
			<point x="881" y="-12" type="line"/>
		</contour>
		<contour>
			<point x="881" y="404" type="line"/>
			<point x="476" y="404" type="line"/>
			<point x="476" y="374" type="line"/>
			<point x="881" y="374" type="line"/>
		</contour>
		<contour>
			<point x="354" y="787" type="line"/>
			<point x="92" y="787" type="line"/>
			<point x="92" y="-70" type="line"/>
			<point x="122" y="-70" type="line"/>
			<point x="122" y="758" type="line"/>
			<point x="354" y="758" type="line"/>
		</contour>
		<contour>
			<point x="349" y="787" type="line"/>
			<point x="343" y="787" type="line"/>
			<point x="343" y="781" type="line"/>
			<point x="312" y="707"/>
			<point x="264" y="607"/>
			<point x="213" y="515" type="curve"/>
			<point x="311" y="426"/>
			<point x="338" y="356"/>
			<point x="338" y="293" type="curve" smooth="yes"/>
			<point x="339" y="260"/>
			<point x="332" y="228"/>
			<point x="312" y="215" type="curve" smooth="yes"/>
			<point x="300" y="208"/>
			<point x="286" y="205"/>
			<point x="271" y="203" type="curve" smooth="yes"/>
			<point x="248" y="202"/>
			<point x="218" y="202"/>
			<point x="185" y="206" type="curve"/>
			<point x="192" y="196"/>
			<point x="196" y="183"/>
			<point x="197" y="176" type="curve"/>
			<point x="223" y="174"/>
			<point x="253" y="173"/>
			<point x="279" y="176" type="curve" smooth="yes"/>
			<point x="298" y="178"/>
			<point x="317" y="182"/>
			<point x="331" y="191" type="curve" smooth="yes"/>
			<point x="357" y="209"/>
			<point x="369" y="249"/>
			<point x="368" y="293" type="curve" smooth="yes"/>
			<point x="368" y="359"/>
			<point x="343" y="432"/>
			<point x="247" y="520" type="curve"/>
			<point x="291" y="600"/>
			<point x="338" y="695"/>
			<point x="375" y="774" type="curve"/>
			<point x="355" y="789" type="line"/>
		</contour>
	</outline>
</glyph>
<glyph name="uni9634" format="2">
	<advance width="1000" height="1000"/>
	<unicode hex="9634"/>
	<note>
		cid43095
	</note>
	<outline>
		<contour>
			<point x="354" y="787" type="line"/>
			<point x="92" y="787" type="line"/>
			<point x="92" y="-70" type="line"/>
			<point x="122" y="-70" type="line"/>
			<point x="122" y="758" type="line"/>
			<point x="354" y="758" type="line"/>
		</contour>
		<contour>
			<point x="349" y="787" type="line"/>
			<point x="343" y="787" type="line"/>
			<point x="343" y="781" type="line"/>
			<point x="312" y="707"/>
			<point x="263" y="606"/>
			<point x="212" y="514" type="curve"/>
			<point x="311" y="425"/>
			<point x="338" y="354"/>
			<point x="338" y="291" type="curve" smooth="yes"/>
			<point x="339" y="258"/>
			<point x="332" y="225"/>
			<point x="311" y="212" type="curve" smooth="yes"/>
			<point x="300" y="205"/>
			<point x="286" y="202"/>
			<point x="271" y="201" type="curve" smooth="yes"/>
			<point x="248" y="199"/>
			<point x="218" y="199"/>
			<point x="185" y="203" type="curve"/>
			<point x="191" y="193"/>
			<point x="196" y="181"/>
			<point x="197" y="173" type="curve"/>
			<point x="222" y="171"/>
			<point x="253" y="171"/>
			<point x="279" y="173" type="curve" smooth="yes"/>
			<point x="298" y="175"/>
			<point x="317" y="180"/>
			<point x="331" y="188" type="curve" smooth="yes"/>
			<point x="357" y="206"/>
			<point x="369" y="247"/>
			<point x="368" y="290" type="curve" smooth="yes"/>
			<point x="368" y="357"/>
			<point x="343" y="430"/>
			<point x="247" y="518" type="curve"/>
			<point x="290" y="599"/>
			<point x="338" y="695"/>
			<point x="375" y="774" type="curve"/>
			<point x="355" y="789" type="line"/>
		</contour>
		<contour>
			<point x="892" y="781" type="line"/>
			<point x="515" y="781" type="line"/>
			<point x="515" y="752" type="line"/>
			<point x="892" y="752" type="line"/>
		</contour>
		<contour>
			<point x="892" y="534" type="line"/>
			<point x="515" y="534" type="line"/>
			<point x="515" y="505" type="line"/>
			<point x="892" y="505" type="line"/>
		</contour>
		<contour>
			<point x="889" y="280" type="line"/>
			<point x="504" y="280" type="line"/>
			<point x="504" y="251" type="line"/>
			<point x="889" y="251" type="line"/>
		</contour>
		<contour>
			<point x="905" y="-16" type="curve" smooth="yes"/>
			<point x="905" y="781" type="line"/>
			<point x="875" y="781" type="line"/>
			<point x="875" y="-16" type="line" smooth="yes"/>
			<point x="875" y="-34"/>
			<point x="869" y="-39"/>
			<point x="852" y="-40" type="curve" smooth="yes"/>
			<point x="835" y="-41"/>
			<point x="777" y="-42"/>
			<point x="708" y="-40" type="curve"/>
			<point x="714" y="-49"/>
			<point x="718" y="-63"/>
			<point x="721" y="-71" type="curve"/>
			<point x="802" y="-71"/>
			<point x="849" y="-71"/>
			<point x="872" y="-65" type="curve" smooth="yes"/>
			<point x="895" y="-60"/>
			<point x="905" y="-47"/>
		</contour>
		<contour>
			<point x="528" y="434" type="curve" smooth="yes"/>
			<point x="528" y="781" type="line"/>
			<point x="499" y="781" type="line"/>
			<point x="499" y="434" type="line" smooth="yes"/>
			<point x="499" y="276"/>
			<point x="480" y="85"/>
			<point x="310" y="-50" type="curve"/>
			<point x="317" y="-54"/>
			<point x="326" y="-65"/>
			<point x="330" y="-71" type="curve"/>
			<point x="506" y="68"/>
			<point x="528" y="272"/>
		</contour>
	</outline>
</glyph>
<glyph name="uni9ED1" format="2">
	<advance width="1000" height="1000"/>
	<unicode hex="9ED1"/>
	<note>
		cid47019
	</note>
	<outline>
		<contour>
			<point x="201" y="484" type="line"/>
			<point x="201" y="759" type="line"/>
			<point x="796" y="759" type="line"/>
			<point x="796" y="484" type="line"/>
		</contour>
		<contour>
			<point x="825" y="788" type="line"/>
			<point x="172" y="788" type="line"/>
			<point x="172" y="454" type="line"/>
			<point x="825" y="454" type="line"/>
		</contour>
		<contour>
			<point x="306" y="695" type="curve"/>
			<point x="280" y="686" type="line"/>
			<point x="314" y="636"/>
			<point x="346" y="568"/>
			<point x="357" y="525" type="curve"/>
			<point x="383" y="537" type="line"/>
			<point x="373" y="580"/>
			<point x="340" y="645"/>
		</contour>
		<contour>
			<point x="852" y="348" type="line"/>
			<point x="145" y="348" type="line"/>
			<point x="145" y="318" type="line"/>
			<point x="852" y="318" type="line"/>
		</contour>
		<contour>
			<point x="942" y="208" type="line"/>
			<point x="59" y="208" type="line"/>
			<point x="59" y="179" type="line"/>
			<point x="942" y="179" type="line"/>
		</contour>
		<contour>
			<point x="513" y="777" type="line"/>
			<point x="483" y="777" type="line"/>
			<point x="483" y="195" type="line"/>
			<point x="513" y="195" type="line"/>
		</contour>
		<contour>
			<point x="710" y="689" type="curve"/>
			<point x="681" y="702" type="line"/>
			<point x="659" y="651"/>
			<point x="616" y="575"/>
			<point x="583" y="530" type="curve"/>
			<point x="606" y="517" type="line"/>
			<point x="638" y="561"/>
			<point x="679" y="632"/>
		</contour>
		<contour>
			<point x="382" y="96" type="curve"/>
			<point x="355" y="95" type="line"/>
			<point x="368" y="43"/>
			<point x="377" y="-24"/>
			<point x="378" y="-65" type="curve"/>
			<point x="406" y="-60" type="line"/>
			<point x="406" y="-21"/>
			<point x="396" y="45"/>
		</contour>
		<contour>
			<point x="592" y="100" type="curve"/>
			<point x="565" y="95" type="line"/>
			<point x="589" y="44"/>
			<point x="616" y="-22"/>
			<point x="626" y="-64" type="curve"/>
			<point x="654" y="-56" type="line"/>
			<point x="643" y="-16"/>
			<point x="617" y="51"/>
		</contour>
		<contour>
			<point x="799" y="109" type="curve"/>
			<point x="774" y="97" type="line"/>
			<point x="827" y="46"/>
			<point x="887" y="-24"/>
			<point x="915" y="-69" type="curve"/>
			<point x="940" y="-55" type="line"/>
			<point x="912" y="-10"/>
			<point x="852" y="60"/>
		</contour>
		<contour>
			<point x="214" y="105" type="curve"/>
			<point x="188" y="112" type="line"/>
			<point x="163" y="44"/>
			<point x="117" y="-21"/>
			<point x="61" y="-58" type="curve"/>
			<point x="83" y="-74" type="line"/>
			<point x="142" y="-34"/>
			<point x="187" y="37"/>
		</contour>
	</outline>
</glyph>
